<svg width="768" height="86" viewBox="0 0 768 86" fill="none" xmlns="http://www.w3.org/2000/svg">
<ellipse cx="394.037" cy="78.208" rx="70.8758" ry="71.4868" fill="#FFBF00"/>
<path d="M-239.568 88.5947C108.95 72.5015 121.295 11.8467 226.705 11.8467C332.115 11.8467 341.136 63.9719 426.129 63.9719C511.122 63.9719 501.863 0 611.546 0C700.812 0 781.769 76.7663 838.035 76.7663C894.301 76.7663 843.495 80.5572 885.279 87.1913C714.344 87.1913 -239.568 88.5947 -239.568 88.5947Z" fill="#192480"/>
<path d="M892 88.5948C855.153 68.5597 820.718 79.2359 749.523 72.0686C678.329 64.9014 648.401 35.438 548.704 35.438C449.007 35.438 422.195 68.5597 292.614 68.5597C163.034 68.5597 65.2235 35.438 -10.1494 35.438C-85.5223 35.438 -110.866 56.4816 -163.067 68.5597C-215.267 80.6378 -270.97 61.4733 -308 88.5948C-247.202 88.5948 892 88.5948 892 88.5948Z" fill="#0688FA"/>
</svg>
