<svg width="41" height="34" viewBox="0 0 41 34" fill="none" xmlns="http://www.w3.org/2000/svg">
<path fill-rule="evenodd" clip-rule="evenodd" d="M27.5685 4.05559C29.4103 3.61733 31.2904 3.68974 32.9794 4.60055C32.6358 4.41319 32.3545 4.01212 32.0891 3.63361C31.9442 3.42701 31.8041 3.22712 31.6611 3.07238C31.1299 2.49693 30.5452 1.97865 29.9033 1.52515C27.3774 -0.262168 22.5358 -0.936698 20.5029 2.07392C19.5782 3.44584 19.8648 5.58376 21.8366 5.7362C23.0487 5.83176 24.2654 5.31923 25.4612 4.81552C26.1728 4.51575 26.877 4.2191 27.5685 4.05559ZM30.0408 6.91004C35.9944 6.91004 40.8206 11.7232 40.8206 17.6606C40.8206 19.7528 40.2207 21.704 39.1813 23.3541C36.2389 29.1886 29.1466 33.3044 20.8659 33.3044C19.0852 33.3044 17.2051 33.0529 15.4626 32.6908C13.7239 32.3326 11.9088 31.6886 10.3306 30.8806C9.03906 30.2175 7.77803 29.3753 6.67751 28.4302C2.48556 24.8327 0.850052 19.829 1.81302 13.9259C1.94676 13.1104 2.24482 12.3101 2.53906 11.5365C2.58502 11.4167 2.63383 11.2973 2.68265 11.1779C2.93828 10.5526 3.19427 9.92645 3.04347 9.2385C2.92155 8.69413 2.58064 8.23592 2.24654 7.78687C2.11988 7.61662 1.9942 7.44769 1.8818 7.27589C1.14047 6.14405 0.368571 3.70507 1.22836 2.46271C2.45881 0.675395 4.99614 1.88726 5.97439 3.28205C6.46351 3.97945 7.31948 5.66006 6.71572 6.91766C7.47615 6.15167 9.01995 5.76677 10.0555 5.76296C11.8668 5.75533 13.6131 6.63565 14.6487 8.11428C15.6995 9.61959 15.3174 11.0906 13.4717 11.6927C12.547 11.9938 11.5038 11.9481 10.5523 11.8414C10.1697 11.7983 9.74193 11.6519 9.30297 11.5017C8.22505 11.1327 7.07943 10.7406 6.36798 11.7994C5.74893 12.7179 5.42795 14.0555 5.51966 15.153C5.7604 18.0188 9.23394 19.4822 11.7789 19.002C14.5302 18.4838 16.1161 16.5326 17.6943 14.4023C20.1361 11.1058 23.2771 8.12191 27.2283 7.28351C28.1264 7.03961 29.0664 6.91004 30.0408 6.91004Z" fill="#1C96F8"/>
</svg>
