<svg width="128" height="22" viewBox="0 0 128 22" fill="none" xmlns="http://www.w3.org/2000/svg">
<path fill-rule="evenodd" clip-rule="evenodd" d="M17.6498 2.67903C18.8665 2.38953 20.1084 2.43736 21.2242 3.03901C20.9972 2.91525 20.8114 2.65031 20.6361 2.40027C20.5404 2.2638 20.4478 2.13176 20.3533 2.02954C20.0024 1.64941 19.6162 1.30705 19.1921 1.00748C17.5236 -0.173182 14.3254 -0.618761 12.9825 1.36998C12.3716 2.27624 12.561 3.6885 13.8635 3.7892C14.6642 3.85233 15.4679 3.51376 16.2578 3.18102C16.7279 2.983 17.1931 2.78703 17.6498 2.67903ZM19.283 4.56452C23.2158 4.56452 26.4039 7.74399 26.4039 11.6661C26.4039 13.0481 26.0076 14.337 25.321 15.4271C23.3773 19.2812 18.6923 22 13.2223 22C12.046 22 10.8041 21.8339 9.65302 21.5947C8.50448 21.3581 7.30547 20.9326 6.26295 20.3989C5.40976 19.9609 4.57675 19.4046 3.84977 18.7803C1.08067 16.4038 0.000292648 13.0985 0.636403 9.19905C0.724752 8.66032 0.921643 8.13167 1.11601 7.62064C1.14637 7.54151 1.17861 7.46265 1.21086 7.38376C1.37972 6.97072 1.54882 6.55709 1.44921 6.10265C1.36868 5.74305 1.14348 5.44037 0.922783 5.14373C0.839112 5.03127 0.756088 4.91968 0.68184 4.80619C0.192135 4.05852 -0.317763 2.44739 0.250193 1.62672C1.063 0.446062 2.7391 1.24659 3.38531 2.16796C3.70841 2.62864 4.27384 3.73881 3.87501 4.56956C4.37734 4.06356 5.39713 3.8093 6.08121 3.80678C7.2777 3.80175 8.43128 4.38327 9.11535 5.36002C9.80952 6.35439 9.55709 7.3261 8.33788 7.72385C7.72702 7.92273 7.0379 7.89252 6.40936 7.82203C6.15661 7.79362 5.87406 7.6969 5.58409 7.59765C4.87204 7.35392 4.11527 7.09488 3.64531 7.79434C3.23638 8.40103 3.02434 9.28464 3.08492 10.0096C3.24395 11.9027 5.53849 12.8694 7.21964 12.5522C9.0371 12.2098 10.0847 10.9209 11.1272 9.51372C12.7402 7.33617 14.8151 5.36505 17.4252 4.81123C18.0184 4.65011 18.6393 4.56452 19.283 4.56452Z" fill="#1C96F8"/>
<path fill-rule="evenodd" clip-rule="evenodd" d="M52.5872 4.47003H55.0358V17.2987H52.5872V4.47003ZM36.3866 15.645C35.2305 15.645 33.8396 15.0106 33.1657 14.3762L32.1055 16.0881C33.0874 16.9918 34.6499 17.5305 36.2705 17.5305C38.8553 17.5305 40.3017 16.2416 40.3017 14.5499C40.3017 12.2415 38.1611 11.8186 36.5608 11.5115C35.5183 11.3 34.7862 11.0885 34.7862 10.512C34.7862 9.97332 35.3668 9.64606 36.2528 9.64606C37.3887 9.64606 38.4489 10.1269 39.0093 10.7235L39.9937 9.04944C39.0673 8.31939 37.8153 7.78067 36.2326 7.78067C33.7816 7.78067 32.4134 9.1451 32.4134 10.7034C32.4134 12.9052 34.4578 13.2975 36.0548 13.6039L36.0786 13.6084C37.1388 13.8199 37.9491 14.049 37.9491 14.7035C37.9491 15.28 37.4468 15.645 36.3866 15.645ZM44.757 17.5305C45.9711 17.5305 47.0717 17.0875 47.7078 16.3373V17.3015H50.1563V11.3C50.1563 8.62652 48.2076 7.78067 46.0872 7.78067C44.6207 7.78067 43.1566 8.24387 42.0182 9.24328L42.9446 10.8771C43.7346 10.1445 44.661 9.77948 45.6632 9.77948C46.8975 9.77948 47.7078 10.3962 47.7078 11.3378V12.6267C47.0894 11.8765 45.9913 11.4913 44.757 11.4913C43.2702 11.4913 41.5158 12.2818 41.5158 14.4543C41.5158 16.5311 43.2727 17.5305 44.757 17.5305ZM45.7414 13.105C46.5315 13.105 47.3039 13.3743 47.7078 13.913V15.066C47.3039 15.6047 46.5315 15.8741 45.7414 15.8741C44.7772 15.8741 43.9871 15.3757 43.9871 14.5097C43.9871 13.6059 44.7772 13.105 45.7414 13.105ZM66.357 12.8935C66.357 9.85497 64.4663 7.77811 61.6897 7.77811C58.8549 7.77811 56.8683 9.95314 56.8709 12.6417C56.8709 15.6248 59.0114 17.528 61.8462 17.528C63.2926 17.528 64.7566 17.0849 65.683 16.2391L64.6027 14.6632C64.0044 15.2397 62.9821 15.5871 62.1137 15.5871C60.531 15.5871 59.587 14.6053 59.433 13.4322H66.357V12.8935ZM63.9842 11.7783H59.3951C59.5112 10.8569 60.1675 9.72154 61.6897 9.72154C63.3102 9.72154 63.9262 10.8947 63.9842 11.7783ZM68.3814 14.3762C69.0554 15.0106 70.4462 15.645 71.6024 15.645C72.6625 15.645 73.1649 15.28 73.1649 14.7035C73.1649 14.049 72.3546 13.8199 71.2944 13.6084L71.2706 13.6039C69.6736 13.2975 67.6292 12.9052 67.6292 10.7034C67.6292 9.1451 68.9973 7.78067 71.4484 7.78067C73.0286 7.78067 74.2831 8.31939 75.2095 9.04944L74.225 10.7235C73.6647 10.1269 72.6045 9.64606 71.466 9.64606C70.58 9.64606 69.9995 9.97332 69.9995 10.512C69.9995 11.0885 70.7315 11.3 71.774 11.5115C73.3744 11.8186 75.5149 12.2415 75.5149 14.5499C75.5149 16.2416 74.0685 17.5305 71.4837 17.5305C69.8631 17.5305 68.3006 16.9918 67.3187 16.0881L68.3814 14.3762ZM81.5757 17.3016L83.5421 10.9729L85.5085 17.3016H88.111L90.9457 8.0124H88.4038L86.6671 14.2631L84.6224 8.0124H82.444L80.3994 14.2631L78.6627 8.0124H76.1183L78.953 17.3016H81.5757ZM98.4679 11.6446C98.4679 10.3557 97.794 9.95292 96.7313 9.95292C95.7872 9.95292 95.035 10.4916 94.6109 11.048V17.2987H92.1624V4.47003H94.6109V9.22036C95.2091 8.50794 96.3652 7.77789 97.8899 7.77789C99.9345 7.77789 100.919 8.8931 100.919 10.7006V17.2987H98.4704V11.6446H98.4679ZM105.99 17.5305C107.204 17.5305 108.305 17.0875 108.941 16.3373V17.3015H111.39V11.3C111.39 8.62652 109.441 7.78067 107.32 7.78067C105.854 7.78067 104.39 8.24387 103.251 9.24328L104.178 10.8771C104.968 10.1445 105.894 9.77948 106.896 9.77948C108.131 9.77948 108.941 10.3962 108.941 11.3378V12.6267C108.323 11.8765 107.225 11.4913 105.99 11.4913C104.503 11.4913 102.749 12.2818 102.749 14.4543C102.749 16.5311 104.506 17.5305 105.99 17.5305ZM106.975 13.105C107.765 13.105 108.537 13.3743 108.941 13.913V15.066C108.537 15.6047 107.765 15.8741 106.975 15.8741C106.01 15.8741 105.22 15.3757 105.22 14.5097C105.22 13.6059 106.01 13.105 106.975 13.105ZM113.82 4.47003H116.269V17.2987H113.82V4.47003ZM127.59 12.8935C127.59 9.85497 125.7 7.77811 122.923 7.77811C120.088 7.77811 118.102 9.95314 118.104 12.6417C118.104 15.6248 120.245 17.528 123.079 17.528C124.526 17.528 125.99 17.0849 126.916 16.2391L125.836 14.6632C125.238 15.2397 124.215 15.5871 123.347 15.5871C121.764 15.5871 120.82 14.6053 120.666 13.4322H127.59V12.8935ZM122.923 9.72154C124.543 9.72154 125.159 10.8947 125.217 11.7783H120.628C120.744 10.8569 121.401 9.72154 122.923 9.72154Z" fill="#17191B"/>
</svg>
