<svg width="56" height="56" viewBox="0 0 56 56" fill="none" xmlns="http://www.w3.org/2000/svg">
<circle cx="28" cy="28" r="28" fill="white"/>
<path d="M39.2596 14.5676L38.8251 17.0941L38.6367 19.6466L38.5162 22.2043L37.9718 24.7256L37.7153 27.2677L37.731 29.8411L37.4431 32.451L34.9145 32.7323L32.4436 32.951L29.9622 33.0031L27.486 33.0917L25.0046 33.1073L22.5336 33.3105L20.0574 33.274L17.5813 33.4772L15.1051 33.5345L12.6237 33.4042L10.2051 33.3313L10.4302 30.8569L10.671 28.32L11.0898 25.8091L11.8698 23.3764L12.1525 20.8395L12.8645 18.3912L13.2309 15.9584L15.7228 15.5L18.3351 15.3646L20.9369 15.1614L23.5388 14.9426L26.1301 14.6301L28.7529 14.7134L31.3547 14.4842L33.967 14.5207L36.574 14.4373L39.1811 14.1769L39.2596 14.5676Z" fill="#C8E3FA"/>
<path d="M15.1048 34.3002C15.0943 34.3002 15.0838 34.1699 15.0734 34.1699C14.6598 34.1491 14.6546 34.2845 14.241 34.2637C13.8274 34.2429 13.8274 34.2429 13.4139 34.222C13.0003 34.2012 13.0003 34.2533 12.5867 34.2377C12.1836 34.222 12.1889 34.1699 11.7858 34.1595C11.3827 34.1491 11.3879 34.1022 10.9848 34.0918C10.5817 34.0814 10.5869 33.9251 10.1891 33.9095C9.99538 33.9043 9.80168 33.9459 9.6708 33.8053C9.53993 33.6594 9.50852 33.4667 9.52422 33.2739C9.55563 32.9145 9.49804 32.9093 9.53469 32.5551C9.5661 32.1904 9.69698 32.206 9.72839 31.8466C9.7598 31.4872 9.70745 31.482 9.73886 31.1277C9.77027 30.7683 9.80691 30.7735 9.84356 30.4141C9.87497 30.0546 9.89067 30.0546 9.92208 29.7004C9.95349 29.341 9.99538 29.3462 10.0268 28.9867C10.0582 28.6273 9.8802 28.6117 9.92732 28.2522C9.9849 27.8251 10.0373 27.8303 10.1105 27.4083C10.1786 26.9812 10.299 27.002 10.3671 26.5748C10.4351 26.1477 10.4299 26.1477 10.5032 25.7205C10.5084 25.6893 10.4299 25.6424 10.4404 25.6111C10.566 25.2152 10.5346 25.2048 10.6602 24.8089C10.7859 24.413 10.7545 24.4026 10.8801 24.0067C11.0057 23.6108 11.1314 23.642 11.2151 23.2357C11.3041 22.8294 11.2518 22.819 11.2989 22.4074C11.346 21.9959 11.2099 21.9803 11.257 21.5687C11.3041 21.1572 11.4507 21.1728 11.4926 20.7613C11.5083 20.7301 11.5135 20.6988 11.524 20.6571C11.6392 20.256 11.6706 20.2664 11.7858 19.8653C11.9009 19.4642 11.6968 19.4069 11.8119 19.0058C11.9271 18.6047 12.1627 18.6672 12.2517 18.2557C12.3407 17.865 12.2622 17.8493 12.3197 17.4482C12.3773 17.0523 12.4716 17.0627 12.5291 16.6668C12.5867 16.2709 12.4925 16.2553 12.5501 15.8594C12.592 15.5625 12.8171 15.4062 13.1155 15.3541C13.529 15.276 13.5343 15.302 13.9531 15.2291C14.3666 15.1509 14.3614 15.1197 14.7802 15.0416C15.1938 14.9634 15.1676 14.8176 15.5864 14.7394C15.6178 14.7342 15.6545 14.7186 15.6859 14.7186C16.1204 14.6977 16.1309 14.8592 16.5654 14.8384C16.9999 14.8176 16.9946 14.7498 17.4344 14.7238C17.8689 14.703 17.8689 14.7238 18.3034 14.6925C18.6751 14.6665 18.6646 14.5519 19.0311 14.5206C19.4028 14.4894 19.408 14.5779 19.7797 14.5519C20.1409 14.5154 20.1461 14.5206 20.5126 14.4946C20.8843 14.4633 20.8791 14.4529 21.2507 14.4217C21.6224 14.3904 21.6277 14.4894 21.9994 14.4581C22.371 14.4269 22.371 14.4373 22.7427 14.406C23.1144 14.3748 23.0935 14.1612 23.4652 14.1247C23.8944 14.0831 23.8944 14.1091 24.3237 14.057C24.753 14.0049 24.7739 14.1924 25.2032 14.1404C25.6325 14.0883 25.6063 13.8695 26.0356 13.8174C26.0722 13.8122 26.1246 13.8174 26.1612 13.8174C26.5905 13.833 26.5853 13.9268 27.0145 13.9424C27.4438 13.958 27.449 13.8538 27.8783 13.8643C28.3076 13.8747 28.3024 14.0466 28.7316 14.031C29.1609 14.0205 29.1452 13.8695 29.5745 13.8278C30.0037 13.7913 30.009 13.8591 30.433 13.8226C30.8571 13.7861 30.8571 13.7392 31.2811 13.7028C31.3073 13.7028 31.3387 13.9059 31.3596 13.9059C31.7941 13.9111 31.7941 13.9007 32.2286 13.9059C32.6632 13.9111 32.6632 13.9007 33.0977 13.9059C33.5322 13.9111 33.5322 13.833 33.9719 13.8278C34.4012 13.8226 34.396 13.734 34.8252 13.7184C35.2545 13.7028 35.2597 13.7913 35.689 13.7809C36.1183 13.7705 36.1183 13.7549 36.5476 13.7288C36.9768 13.7028 36.9768 13.734 37.4061 13.6871C37.8354 13.6455 37.8197 13.4892 38.2437 13.4475C38.673 13.4059 38.6887 13.5517 39.1127 13.5048C39.4687 13.4632 39.8195 13.6819 39.8928 14.0362C39.9294 14.2289 39.7933 14.2602 39.8299 14.4529C39.8456 14.5363 40.0393 14.6144 40.0236 14.6977C39.9504 15.1145 39.987 15.1197 39.9189 15.5364C39.8456 15.9532 39.652 15.9167 39.5787 16.3335C39.5054 16.7502 39.474 16.7502 39.4216 17.1669C39.3745 17.5837 39.5682 17.6045 39.5368 18.0212C39.5054 18.4432 39.385 18.4328 39.3536 18.8547C39.3221 19.2767 39.4478 19.2819 39.4216 19.7038C39.3954 20.1258 39.3117 20.1206 39.2907 20.5425C39.2698 20.9645 39.2803 20.9645 39.2646 21.3916C39.2436 21.8136 39.3431 21.8188 39.3221 22.246C39.3221 22.2824 39.1494 22.3033 39.1389 22.3397C39.0499 22.7513 39.0761 22.7565 38.9871 23.1732C38.8981 23.5847 38.8405 23.5743 38.7515 23.9858C38.6625 24.3974 38.8458 24.4338 38.7829 24.8506C38.7201 25.2569 38.7463 25.2569 38.7044 25.6684C38.6625 26.08 38.5002 26.0643 38.4584 26.4759C38.4165 26.8874 38.4898 26.8926 38.4688 27.3041C38.4479 27.7261 38.5421 27.7209 38.5474 28.148C38.5526 28.57 38.317 28.57 38.3223 28.9971C38.3275 29.4191 38.5474 29.4191 38.5474 29.841C38.5474 29.8671 38.4688 29.8983 38.4688 29.9296C38.4217 30.362 38.2856 30.3463 38.2385 30.7839C38.1914 31.2163 38.3694 31.2371 38.317 31.6747C38.2647 32.1123 38.1338 32.0967 38.0867 32.529C38.05 32.8572 37.8406 33.0708 37.5108 33.1072C37.092 33.1541 37.1077 33.326 36.6889 33.3729C36.2649 33.4198 36.2649 33.4094 35.8461 33.4563C35.422 33.5031 35.4116 33.3677 34.9875 33.4094C34.574 33.4511 34.5897 33.5865 34.1761 33.623C33.7625 33.6594 33.752 33.5709 33.3385 33.6073C32.9249 33.6438 32.9301 33.748 32.5166 33.7688C32.0978 33.7897 32.0925 33.7219 31.6685 33.7271C31.2445 33.7376 31.2497 33.8053 30.8257 33.8157C30.4016 33.8261 30.4068 33.8313 29.9828 33.8417C29.5745 33.8522 29.5692 33.7897 29.1609 33.8053C28.7526 33.8209 28.7526 33.8782 28.339 33.8938C27.9307 33.9095 27.9202 33.7324 27.5119 33.7376C27.0983 33.748 27.0983 33.7011 26.69 33.7063C26.2764 33.7063 26.2764 33.7271 25.8628 33.7271C25.4493 33.7271 25.444 33.7115 25.0357 33.7271C24.6273 33.7428 24.6378 33.9355 24.2347 33.9668C23.8264 33.998 23.8264 34.0084 23.4181 34.0449C23.0097 34.0762 23.0045 34.0241 22.5961 34.0605C22.5752 34.0605 22.5438 34.1178 22.5229 34.1126C22.1145 34.1022 22.1145 34.0918 21.7114 34.0866C21.3031 34.0814 21.3083 33.8834 20.9 33.8782C20.4917 33.873 20.4864 33.9095 20.0833 33.9199C19.675 33.9355 19.6802 34.0084 19.2719 34.0449C18.8636 34.0814 18.8583 34.0241 18.4552 34.0553C18.0469 34.0918 18.0521 34.1543 17.6438 34.1751C17.225 34.196 17.225 34.1283 16.8009 34.1335C16.3821 34.1439 16.3821 34.2272 15.9633 34.2377C15.5445 34.2481 15.5445 34.2533 15.1205 34.2585C15.1153 34.2533 15.11 34.3002 15.1048 34.3002ZM11.0162 32.6072C11.3198 32.8937 11.3879 32.7322 11.8067 32.7478C12.2255 32.7634 12.2307 32.6228 12.6495 32.6384C13.0579 32.654 13.0631 32.6592 13.4715 32.6801C13.885 32.7009 13.885 32.6436 14.2986 32.6645C14.7122 32.6853 14.7017 32.753 15.1153 32.7582C15.5236 32.7634 15.5236 32.7947 15.9319 32.7843C16.3403 32.7739 16.3455 32.9301 16.7538 32.9197C17.1622 32.9093 17.1622 32.7895 17.5705 32.7686C17.9736 32.7478 17.9788 32.7634 18.3819 32.7322C18.785 32.6957 18.785 32.6384 19.1881 32.6072C19.5912 32.5707 19.6069 32.7009 20.01 32.6697C20.031 32.6697 20.0467 32.6124 20.0729 32.6124C20.4812 32.6176 20.4812 32.654 20.8843 32.6593C21.2926 32.6645 21.2926 32.6749 21.701 32.6853C22.1093 32.6905 22.1145 32.7478 22.5229 32.7374C22.9312 32.7218 22.9207 32.5394 23.3291 32.5082C23.7374 32.4769 23.7374 32.5186 24.1457 32.4821C24.5541 32.4509 24.5645 32.5655 24.9676 32.5342C24.9833 32.5342 24.9938 32.5238 25.0095 32.5238C25.4231 32.5186 25.4231 32.4353 25.8366 32.4353C26.2502 32.4353 26.2502 32.3988 26.6638 32.3936C27.0774 32.3936 27.0774 32.3623 27.4909 32.3571C27.8993 32.3467 27.9045 32.4248 28.3128 32.4144C28.7212 32.3988 28.7212 32.3884 29.1295 32.3727C29.5378 32.3571 29.5326 32.2217 29.9462 32.2113C30.3597 32.2008 30.365 32.3467 30.7785 32.3415C31.1921 32.3311 31.1921 32.3311 31.6109 32.3206C32.0245 32.3102 32.0297 32.3571 32.4485 32.3363C32.8516 32.3154 32.8359 32.0862 33.239 32.0498C33.6421 32.0133 33.6631 32.2217 34.0662 32.1852C34.4692 32.1487 34.464 32.0966 34.8671 32.0602C35.1917 32.0289 35.2022 32.1123 35.5267 32.0758C35.8513 32.0393 35.8408 31.9404 36.1654 31.9039C36.49 31.8674 36.647 32.1019 36.8774 31.8674C37.113 31.6278 36.9664 31.4872 37.003 31.1538C37.0397 30.8204 37.003 30.8152 37.0449 30.4818C37.0815 30.1484 36.9507 30.138 36.9664 29.7994C36.9873 29.3774 36.9507 29.3826 36.9507 28.9607C36.9454 28.5387 37.113 28.5387 37.1077 28.1168C37.1025 27.6948 37.0397 27.6948 37.0344 27.2729C37.0344 27.2468 37.0501 27.226 37.0554 27.2C37.0972 26.778 36.9873 26.7624 37.0292 26.3404C37.0711 25.9133 37.1601 25.9237 37.2072 25.5017C37.2491 25.0746 37.2543 25.0798 37.2962 24.6526C37.3014 24.6266 37.2909 24.6005 37.2962 24.5745C37.3852 24.163 37.4794 24.1838 37.5684 23.7775C37.6574 23.3659 37.6679 23.3712 37.7569 22.9596C37.8459 22.5481 37.6626 22.5168 37.715 22.1001C37.7673 21.6886 37.7673 21.6938 37.7883 21.277C37.8092 20.8603 37.9977 20.8707 38.0134 20.454C38.0343 20.0372 37.804 20.0268 37.8302 19.6101C37.8563 19.1829 37.8668 19.1829 37.8982 18.7505C37.9296 18.3234 38.0238 18.3286 38.0553 17.9014C38.0867 17.4743 37.982 17.4639 38.0134 17.0367C38.0134 17.0159 38.16 17.0054 38.16 16.9794C38.2175 16.6408 38.0919 16.62 38.1495 16.2866C38.2071 15.948 38.2751 15.9636 38.338 15.625C38.3955 15.2864 38.7201 15.2291 38.4427 15.0259C38.071 14.755 38.0239 14.8801 37.5632 14.927C37.1025 14.9738 37.1077 14.9947 36.647 15.0311C36.3172 15.0572 36.3225 15.0572 35.9874 15.0676C35.6576 15.078 35.6576 15.1718 35.3278 15.1822C34.9928 15.1926 34.998 15.276 34.6629 15.2864C34.3279 15.2968 34.3279 15.2187 33.9929 15.2187C33.5584 15.2239 33.5584 15.2395 33.1238 15.2291C32.6893 15.2239 32.6893 15.177 32.2548 15.1718C31.8203 15.1666 31.8255 15.302 31.391 15.3176C30.9618 15.3333 30.9565 15.2083 30.5325 15.2499C30.1032 15.2864 30.1084 15.3333 29.6792 15.3697C29.2499 15.4062 29.2394 15.2656 28.8102 15.302C28.784 15.3072 28.763 15.5 28.7316 15.5C28.3024 15.4843 28.3024 15.526 27.8783 15.5104C27.449 15.4948 27.4595 15.302 27.0302 15.2864C26.601 15.2708 26.5957 15.2291 26.1665 15.2447C25.7319 15.2551 25.7477 15.4531 25.3236 15.5052C24.8996 15.5573 24.8839 15.4375 24.4598 15.4896C24.0358 15.5416 24.0515 15.6771 23.6275 15.7188C23.2558 15.7552 23.2453 15.6615 22.8736 15.6875C22.5019 15.7188 22.5019 15.7292 22.1302 15.7604C21.7585 15.7917 21.7638 15.8855 21.3921 15.9167C21.0204 15.948 21.0047 15.7761 20.633 15.8073C20.2613 15.8386 20.2613 15.8646 19.8896 15.8959C19.5127 15.9271 19.5127 15.8698 19.1358 15.9011C18.7589 15.9323 18.7746 16.1459 18.4029 16.172C17.9736 16.198 17.9736 16.198 17.5443 16.2241C17.115 16.2449 17.1046 16.0834 16.6753 16.1095C16.246 16.1355 16.2513 16.2032 15.822 16.2501C15.4922 16.2866 15.5131 16.3803 15.1885 16.4376C14.864 16.4949 14.8221 16.2709 14.4923 16.3282C14.1572 16.3908 14.1625 16.396 13.9321 16.6356C13.7018 16.87 13.8379 16.8856 13.7908 17.2086C13.7437 17.5316 13.6076 17.5107 13.5604 17.8337C13.5133 18.1567 13.6913 18.1827 13.6442 18.5057C13.639 18.537 13.5029 18.5422 13.4924 18.5734C13.3772 18.9693 13.3772 18.9745 13.262 19.3704C13.1469 19.7716 13.3092 19.8184 13.194 20.2143C13.0788 20.6155 13.0369 20.5946 12.9584 21.0009C12.8747 21.4073 12.77 21.3864 12.7228 21.798C12.6757 22.2095 12.8171 22.2251 12.77 22.6366C12.7228 23.0482 12.6338 23.0378 12.5867 23.4545C12.5815 23.5014 12.6548 23.5743 12.6391 23.6212C12.5134 24.0171 12.4558 24.0015 12.3302 24.3974C12.2046 24.7933 12.2674 24.8193 12.1417 25.2152C12.0161 25.6111 11.9952 25.6007 11.9009 26.007C11.8015 26.4081 11.7648 26.3977 11.6968 26.804C11.6287 27.2156 11.6863 27.226 11.6182 27.6323C11.5502 28.0439 11.3513 28.0126 11.2989 28.4241C11.2518 28.7731 11.2308 28.7731 11.1942 29.1274C11.1628 29.4764 11.1785 29.4816 11.1471 29.8306C11.1157 30.1796 11.1104 30.1796 11.079 30.5339C11.0476 30.8829 11.2204 30.9037 11.189 31.2528C11.1576 31.607 11.2308 31.6382 11.1261 31.9768C11.0267 32.3206 10.7597 32.3623 11.0162 32.6072Z" fill="#023866"/>
<path d="M41.8349 17.7661L41.4266 20.2978L41.2539 22.8503L41.0706 25.4029L40.8926 27.9554L40.5052 30.4923L40.2435 33.0344L39.9451 35.4776L37.5788 35.712L35.1288 36.1131L32.637 36.0506L30.1765 36.3735L27.6951 36.311L25.2189 36.4569L22.7479 36.7017L20.2718 36.8163L17.7903 36.7642L15.3142 36.6496L12.8223 36.6027L13.173 34.0711L13.3824 31.5341L13.8693 29.0389L14.3247 26.5385L14.9006 24.0641L15.445 21.5845L15.8691 19.1205L18.4395 18.959L21.0099 18.4641L23.6222 18.3443L26.2135 18.0161L28.8363 18.0839L31.4329 17.8547L34.0399 17.688L36.647 17.5682L39.2541 17.365L41.8664 17.4588L41.8349 17.7661Z" fill="#C8E3FA"/>
<path d="M20.3035 37.6133C19.8847 37.6185 19.8847 37.3945 19.4606 37.384C19.0366 37.3736 19.0366 37.3788 18.6178 37.3736C18.1937 37.3632 18.199 37.3788 17.7749 37.3632C17.3614 37.3476 17.3509 37.556 16.9373 37.5351C16.5238 37.5143 16.5185 37.5351 16.1049 37.5143C15.6914 37.4934 15.6966 37.2851 15.283 37.2694C14.8695 37.2538 14.8642 37.4674 14.4559 37.4622C14.0423 37.4518 14.0476 37.3372 13.634 37.3267C13.2204 37.3163 13.2204 37.2434 12.8121 37.2382C12.6132 37.233 12.4404 37.1913 12.3095 37.0402C12.1787 36.8892 12.2101 36.7173 12.2362 36.5193C12.2938 36.0974 12.2153 36.0869 12.2729 35.665C12.3305 35.243 12.3148 35.243 12.3724 34.8211C12.4299 34.3991 12.32 34.3887 12.3671 33.9616C12.4142 33.5448 12.5137 33.5552 12.5503 33.1437C12.587 32.727 12.5346 32.7218 12.5661 32.305C12.6027 31.8883 12.5661 31.8831 12.5975 31.4663C12.5975 31.4403 12.765 31.4403 12.7702 31.4142C12.8487 30.9975 12.7074 30.9715 12.7912 30.5547C12.8697 30.138 12.8383 30.1328 12.922 29.716C13.0006 29.2993 13.1419 29.3253 13.2204 28.9086C13.299 28.4919 13.189 28.4762 13.2623 28.0595C13.3408 27.6427 13.4927 27.674 13.5712 27.2573C13.6497 26.8405 13.545 26.8249 13.6288 26.4082C13.7178 25.9862 13.812 26.0122 13.9115 25.5903C14.0109 25.1736 13.9376 25.1579 14.0371 24.736C14.1366 24.3192 14.2413 24.3401 14.3407 23.9233C14.435 23.5118 14.3355 23.491 14.4297 23.0794C14.5187 22.6679 14.5397 22.6731 14.6287 22.2564C14.7177 21.8448 14.6077 21.824 14.6915 21.4073C14.77 21.0062 14.9218 21.0322 14.9899 20.6259C15.0579 20.2196 15.0056 20.2091 15.0736 19.808C15.1417 19.4017 15.0004 19.3809 15.0684 18.9745C15.126 18.6516 15.5082 18.3911 15.8327 18.3703C16.2515 18.3442 16.2515 18.3338 16.6703 18.3078C17.0891 18.2817 17.0944 18.3026 17.5132 18.2765C17.932 18.2505 17.9372 18.2869 18.356 18.2348C18.7801 18.1827 18.7644 18.1046 19.1884 18.0265C19.6124 17.9431 19.6177 17.9744 20.0365 17.8962C20.4605 17.8129 20.4553 17.7868 20.8741 17.7035C20.9055 17.6983 20.9578 17.8025 20.9893 17.8025C21.4185 17.7816 21.4185 17.7868 21.8478 17.7712C22.2771 17.7504 22.2771 17.6827 22.7064 17.6618C23.1356 17.641 23.1461 17.7868 23.5754 17.7504C24.0046 17.7139 24.0046 17.6931 24.4339 17.641C24.8632 17.5889 24.8527 17.5212 25.282 17.4691C25.7113 17.417 25.706 17.3909 26.1353 17.3388C26.172 17.3336 26.2034 17.2503 26.24 17.2503C26.6693 17.2607 26.6693 17.318 27.0986 17.3284C27.5278 17.3388 27.5331 17.219 27.9623 17.2294C28.3916 17.2399 28.3864 17.2659 28.8157 17.2555C29.2449 17.2399 29.2502 17.4118 29.6794 17.3701C30.1087 17.3336 30.1035 17.3024 30.5328 17.2659C30.962 17.2294 30.962 17.2659 31.3913 17.2347C31.8258 17.2034 31.8258 17.2294 32.2656 17.2034C32.7053 17.1774 32.7001 17.094 33.1346 17.068C33.5743 17.0419 33.5743 17.0523 34.0088 17.0263C34.4433 17.0002 34.4486 17.0471 34.8831 17.0263C35.3176 17.0055 35.3176 17.0107 35.7573 16.9898C36.1971 16.969 36.1814 16.7867 36.6211 16.7554C37.0504 16.7294 37.0504 16.7346 37.4797 16.7033C37.9089 16.6668 37.9194 16.7867 38.3487 16.7554C38.778 16.7189 38.7675 16.5835 39.202 16.5522C39.2282 16.5522 39.2648 16.646 39.291 16.646C39.7255 16.6616 39.7307 16.5731 40.1653 16.5887C40.5998 16.6043 40.5998 16.6668 41.0343 16.6877C41.4688 16.7033 41.474 16.6304 41.9085 16.646C42.1022 16.6512 42.2645 16.8648 42.3902 17.0107C42.5158 17.1565 42.7043 17.3388 42.6833 17.5316C42.6676 17.6827 42.6257 17.6827 42.6153 17.8337C42.6153 17.8493 42.4373 17.8441 42.4373 17.8598C42.3692 18.2765 42.3849 18.2765 42.3221 18.6932C42.254 19.11 42.2907 19.1152 42.2226 19.5319C42.1546 19.9487 42.1284 19.9487 42.0813 20.3654C42.0342 20.7457 42.0603 20.7509 42.0342 21.1312C42.008 21.5115 42.0185 21.5115 41.9923 21.8917C41.9661 22.272 41.9923 22.2772 41.9661 22.6575C41.9399 23.0378 41.9242 23.0378 41.8981 23.418C41.8719 23.7983 41.9871 23.8087 41.9609 24.189C41.9347 24.5693 41.8248 24.5641 41.7986 24.9444C41.7724 25.3246 41.8509 25.3298 41.8248 25.7101C41.7986 26.0904 41.8091 26.0956 41.7829 26.4759C41.7567 26.8561 41.6363 26.8509 41.6101 27.2312C41.584 27.6115 41.7358 27.6219 41.7044 28.0074C41.7044 28.0282 41.7358 28.0595 41.7305 28.0751C41.6677 28.4971 41.4845 28.471 41.4217 28.893C41.3588 29.3149 41.5264 29.341 41.4635 29.7629C41.4007 30.1849 41.2699 30.164 41.2175 30.5912C41.1651 31.0079 41.1442 31.0079 41.0971 31.4247C41.0552 31.8414 41.1861 31.857 41.1442 32.279C41.1023 32.6957 40.9086 32.6801 40.8615 33.0968C40.8144 33.5084 41.029 33.5292 40.9819 33.9407C40.9296 34.3523 40.694 34.321 40.6416 34.7325C40.5893 35.1441 40.7097 35.1545 40.6574 35.566C40.6155 35.8942 40.359 36.139 40.0344 36.1703C39.6418 36.2068 39.6522 36.337 39.2596 36.3735C38.867 36.4099 38.8617 36.3891 38.4691 36.4255C38.0765 36.462 38.0608 36.3318 37.6681 36.3839C37.265 36.436 37.2546 36.3839 36.8567 36.4464C36.4536 36.5141 36.4902 36.7121 36.0871 36.7798C35.684 36.8475 35.6474 36.6183 35.2443 36.686C35.2024 36.6912 35.1762 36.8214 35.1344 36.8214C34.7313 36.811 34.7313 36.7016 34.3282 36.6912C33.9198 36.6808 33.9198 36.811 33.5115 36.8006C33.1032 36.7902 33.1032 36.6964 32.7001 36.7173C32.297 36.7381 32.3022 36.8006 31.8991 36.8527C31.496 36.9048 31.4855 36.8006 31.0824 36.8527C30.6793 36.9048 30.7003 37.0454 30.2972 37.0975C30.2605 37.1027 30.2187 37.1705 30.182 37.1705C29.7737 37.16 29.7737 37.1496 29.3653 37.1444C28.957 37.134 28.9622 36.9465 28.5539 36.9361C28.1456 36.9256 28.1403 36.8944 27.732 36.8996C27.3237 36.9048 27.3184 36.9204 26.9153 36.9465C26.507 36.9725 26.5175 37.16 26.1091 37.1861C25.7008 37.2121 25.6956 37.0975 25.2872 37.134C24.8789 37.1653 24.8789 37.1861 24.4758 37.2278C24.0675 37.2694 24.0675 37.259 23.6591 37.3007C23.2508 37.3424 23.2613 37.4361 22.8529 37.4674C22.4341 37.4986 22.4289 37.358 22.0101 37.3788C21.5913 37.3997 21.5756 37.3059 21.1568 37.3632C20.7013 37.4101 20.7275 37.608 20.3035 37.6133ZM13.7021 35.8577C13.969 36.1911 14.0476 36.0401 14.4716 36.0505C14.8956 36.0609 14.8956 36.0453 15.3197 36.0609C15.7333 36.0765 15.7333 36.0713 16.1521 36.0922C16.5709 36.113 16.5761 35.8994 16.9949 35.9202C17.4137 35.9411 17.4085 35.9255 17.8273 35.9411C18.2356 35.9567 18.2304 36.1547 18.6387 36.1651C19.047 36.1755 19.0523 35.9671 19.4659 35.9723C19.8742 35.9828 19.8742 36.113 20.2825 36.1078C20.6856 36.1026 20.6909 36.1651 21.094 36.1442C21.4971 36.1234 21.4971 36.0869 21.9002 36.0661C22.3033 36.0453 22.3137 36.1442 22.7168 36.113C23.1252 36.0817 23.1147 35.9932 23.523 35.9515C23.9314 35.9098 23.9261 35.8942 24.3345 35.8525C24.7428 35.8109 24.7271 35.6806 25.1354 35.6494C25.549 35.6181 25.5595 35.7379 25.9783 35.7119C26.3971 35.6858 26.3918 35.6337 26.8106 35.6077C27.2294 35.5816 27.2242 35.5452 27.643 35.5191C27.6639 35.5191 27.6849 35.6806 27.7058 35.6806C28.1089 35.691 28.1142 35.5452 28.5173 35.5556C28.9204 35.566 28.9256 35.5348 29.3287 35.54C29.7318 35.5504 29.7318 35.7171 30.1401 35.6962C30.5432 35.6754 30.5275 35.5348 30.9306 35.4827C31.3337 35.4306 31.3547 35.5869 31.7525 35.5348C32.1504 35.4827 32.1399 35.3889 32.543 35.3368C32.5797 35.3316 32.6163 35.4202 32.653 35.4202C33.0561 35.4306 33.0561 35.3576 33.4592 35.3681C33.8622 35.3785 33.8623 35.4879 34.2654 35.4983C34.6684 35.5087 34.6737 35.4514 35.0768 35.4254C35.4799 35.3993 35.4799 35.3785 35.8777 35.3108C36.2756 35.243 36.2547 35.1232 36.6525 35.0607C37.0504 34.993 37.0713 35.1441 37.4744 35.092C37.9351 35.0347 37.9299 34.993 38.3906 34.9461C38.8513 34.8992 38.867 35.0034 39.2387 34.7325C39.4952 34.545 39.3015 34.5085 39.3381 34.196C39.3748 33.8834 39.3695 33.8782 39.4062 33.5657C39.4428 33.2531 39.469 33.2531 39.5056 32.9406C39.5528 32.5186 39.558 32.5186 39.6051 32.0967C39.647 31.6747 39.5999 31.6695 39.6418 31.2475C39.6836 30.8256 39.7046 30.8256 39.7569 30.4036C39.8093 29.9817 39.7936 29.9765 39.8564 29.5545C39.9192 29.1326 40.0344 29.1482 40.0972 28.7263C40.16 28.3043 40.181 28.3043 40.2333 27.8772C40.2752 27.4969 40.1914 27.4917 40.2176 27.1114C40.2438 26.7311 40.3747 26.7415 40.4008 26.3613C40.427 25.981 40.4218 25.981 40.4532 25.5955C40.4794 25.2152 40.4113 25.21 40.4375 24.8297C40.4637 24.4495 40.4427 24.4443 40.4689 24.064C40.4951 23.6837 40.4113 23.6785 40.4375 23.293C40.4637 22.9127 40.5212 22.918 40.5474 22.5325C40.5736 22.1522 40.4532 22.1418 40.4794 21.7615C40.5055 21.376 40.5055 21.3812 40.5369 20.9957C40.5631 20.6103 40.7568 20.6259 40.783 20.2456C40.783 20.2248 40.7568 20.2039 40.7621 20.1831C40.8196 19.8393 40.8615 19.8497 40.9139 19.5059C40.9715 19.1621 40.9924 19.1673 41.0447 18.8235C41.1023 18.4797 41.3222 18.3442 41.0657 18.1098C40.7359 17.8077 40.605 18.0733 40.1548 18.0577C39.7046 18.0421 39.7046 17.9744 39.2544 17.9796C38.8408 17.9952 38.8356 18.016 38.4063 18.0525C37.977 18.0838 37.9927 18.2765 37.5634 18.313C37.1342 18.3494 37.1342 18.339 36.7049 18.3651C36.2651 18.3911 36.2599 18.2661 35.8202 18.2869C35.3804 18.3078 35.3857 18.4432 34.9511 18.464C34.5114 18.4849 34.5062 18.3859 34.0717 18.4067C33.6371 18.4328 33.6476 18.5213 33.2131 18.5474C32.7786 18.5734 32.7786 18.5109 32.3441 18.537C31.9096 18.563 31.9148 18.6307 31.4855 18.6672C31.0563 18.6985 31.0458 18.5682 30.6165 18.6047C30.1872 18.6412 30.1977 18.7662 29.7684 18.8079C29.3392 18.8443 29.3339 18.8026 28.9047 18.8391C28.8785 18.8443 28.8471 18.6724 28.8209 18.6672C28.3916 18.6568 28.3916 18.6724 27.9676 18.662C27.5383 18.6516 27.5383 18.688 27.109 18.6776C26.6798 18.6672 26.6745 18.6255 26.2505 18.6464C25.8264 18.6672 25.8212 18.7037 25.4024 18.7558C24.9784 18.8079 24.9784 18.8183 24.5543 18.8756C24.1303 18.9277 24.1355 18.9537 23.7115 19.0058C23.6905 19.0058 23.6748 18.9954 23.6539 18.9954C23.2299 19.0162 23.2351 19.1308 22.8058 19.1465C22.3818 19.1673 22.3765 19.0579 21.9473 19.0787C21.5232 19.0996 21.5232 19.1465 21.0992 19.1933C20.6751 19.2454 20.6856 19.2871 20.2616 19.3652C19.8428 19.4486 19.8166 19.3288 19.3978 19.4121C18.979 19.4955 19.0052 19.6413 18.5864 19.7195C18.555 19.7247 18.5183 19.7664 18.4869 19.7664C18.1519 19.7872 18.1414 19.6049 17.8063 19.6257C17.4713 19.6465 17.4818 19.8184 17.1467 19.8393C16.8117 19.8601 16.7122 19.5424 16.4609 19.7664C16.2149 19.9799 16.3719 20.0841 16.3143 20.4071C16.2568 20.7249 16.3929 20.7509 16.3353 21.0687C16.2777 21.3864 16.0945 21.3552 16.0317 21.6729C15.9479 22.0949 16.1573 22.1366 16.0631 22.5533C15.9688 22.97 15.7385 22.9232 15.6443 23.3399C15.55 23.7566 15.6704 23.7827 15.5762 24.2046C15.482 24.6214 15.4767 24.6162 15.3825 25.0329C15.2883 25.4496 15.4087 25.4757 15.3145 25.8924C15.2202 26.3092 15.1836 26.2988 15.0998 26.7155C15.0161 27.1218 14.9061 27.101 14.8328 27.5125C14.7595 27.924 14.6915 27.9136 14.613 28.3252C14.5397 28.7367 14.7438 28.7732 14.6653 29.1847C14.5868 29.5962 14.3564 29.5545 14.2779 29.9609C14.1994 30.3724 14.325 30.3984 14.2413 30.81C14.1627 31.2215 14.0319 31.2007 13.9743 31.6174C13.9167 32.0289 14.0685 32.0498 14.0319 32.4665C13.9952 32.8833 13.9324 32.878 13.8958 33.2948C13.8591 33.7115 13.9062 33.7167 13.8591 34.1335C13.8068 34.5815 13.7753 34.5658 13.634 34.993C13.5084 35.4149 13.4194 35.5035 13.7021 35.8577Z" fill="#023866"/>
<path fill-rule="evenodd" clip-rule="evenodd" d="M44.2801 23.5223L44.6308 20.9854L44.5575 20.6104L44.0409 20.6547L41.9398 20.6104L39.3328 20.6989L36.731 21.0167L36.5625 21.0285L34.1241 21.0479L32.4028 21.1133L31.5064 21.0688L30.2046 21.1704L28.8995 21.1938L26.2977 21.4178L23.7011 21.6626L21.0992 21.9022L19.8434 22.1538L18.492 22.2721L18.626 22.4125L18.2671 24.8142L17.5028 27.2574L17.1311 29.7734L16.7018 32.2791L16.0631 34.7431L15.8171 37.28L15.4297 39.8846L18.0053 39.8533H20.4815L22.9577 39.8065L25.4339 39.6919L27.9153 39.8742L30.3862 39.6554L32.8676 39.645L35.3281 39.2491L37.8043 39.1657L40.2752 39.0042L42.7776 38.8323L43.1179 36.2642L43.3325 33.7168L43.6152 31.1695L43.699 28.6066L44.034 26.0697L44.2801 23.5223Z" fill="white"/>
<path fill-rule="evenodd" clip-rule="evenodd" d="M30 33.2865C30.0889 33.3341 30.1618 33.3731 30.2659 33.3731C30.3129 33.3731 30.3679 33.3874 30.4218 33.4014C30.506 33.4233 30.5877 33.4445 30.6324 33.4095C30.793 33.3186 30.8657 33.2714 30.9435 33.2209C31.0128 33.1759 31.0861 33.1283 31.2292 33.0449C31.3823 32.9582 31.4435 32.8914 31.5056 32.8238C31.5666 32.7573 31.6283 32.6899 31.7789 32.6021C31.9346 32.5139 32.0008 32.4545 32.0687 32.3937C32.1331 32.3359 32.1989 32.2768 32.3442 32.1906C32.4977 32.101 32.5843 32.0741 32.671 32.0471C32.7558 32.0207 32.8406 31.9943 32.9882 31.9093C33.0231 31.8884 33.0486 31.8583 33.0742 31.8282L33.0743 31.8282L33.0743 31.8282C33.0871 31.8132 33.0999 31.7981 33.1138 31.7843C33.2681 31.6281 33.3453 31.5512 33.4225 31.4745L33.4226 31.4744L33.4227 31.4743C33.4999 31.3975 33.5771 31.3206 33.7315 31.1643C33.886 31.0081 33.9566 30.9247 34.0273 30.8414C34.098 30.758 34.1687 30.6747 34.3231 30.5184C34.4969 30.3425 34.5845 30.2771 34.6858 30.2016C34.7644 30.143 34.8513 30.0781 34.9932 29.9506C35.1341 29.8217 35.2079 29.7419 35.2741 29.6703C35.3605 29.5769 35.434 29.4974 35.6266 29.3411C35.6465 29.325 35.6654 29.3101 35.6836 29.2964C35.7046 29.3466 35.7317 29.4037 35.768 29.4713C35.8743 29.6695 35.9409 29.7545 36.0107 29.8435C36.0748 29.9254 36.1416 30.0106 36.2444 30.1902C36.3455 30.3657 36.3606 30.476 36.3755 30.585C36.3906 30.6961 36.4057 30.8059 36.5113 30.982C36.6093 31.1453 36.6866 31.2174 36.76 31.2857C36.8434 31.3635 36.9216 31.4364 37.0191 31.6332C37.1557 31.9089 37.1847 31.9849 37.2535 32.1654C37.277 32.227 37.3051 32.3008 37.3437 32.3989C37.4196 32.5917 37.4537 32.6894 37.4877 32.787C37.5217 32.8847 37.5557 32.9824 37.6316 33.1751C37.6413 33.1968 37.6364 33.2286 37.6315 33.2606C37.6258 33.2977 37.62 33.3351 37.6369 33.3574C37.7605 33.5354 37.8564 33.6003 37.953 33.6657C38.0488 33.7305 38.1453 33.7959 38.2703 33.9721C38.3767 34.1222 38.4362 34.2096 38.4889 34.287C38.5606 34.3925 38.6198 34.4794 38.7677 34.6806C38.8859 34.8443 38.912 34.9515 38.9377 35.0571C38.9643 35.1665 38.9905 35.2741 39.1184 35.4411C39.2391 35.5987 39.3404 35.6542 39.4375 35.7074C39.5426 35.765 39.6428 35.8198 39.7571 35.9985C39.8703 36.1782 39.8669 36.2971 39.8634 36.4207C39.8602 36.5372 39.8568 36.6578 39.9508 36.8372C40.0498 37.0263 40.1051 37.1147 40.1613 37.2046C40.215 37.2905 40.2697 37.3779 40.3643 37.5561C40.3781 37.5808 40.4195 37.591 40.461 37.6013C40.4982 37.6105 40.5355 37.6197 40.5528 37.6394C40.6975 37.8047 40.7763 37.8786 40.8567 37.9539C40.9273 38.02 40.999 38.0872 41.1175 38.2183C41.099 38.2223 41.0812 38.2264 41.0634 38.2306C40.9731 38.2514 40.8828 38.2722 40.6995 38.2852C40.5089 38.2961 40.4188 38.3097 40.3247 38.324C40.2379 38.3372 40.1476 38.3509 39.9719 38.3634C39.7913 38.3764 39.701 38.3959 39.6107 38.4155L39.6106 38.4155C39.5203 38.435 39.43 38.4545 39.2494 38.4676L39.244 38.468L39.2398 38.4683L39.2329 38.4688C38.8881 38.4936 38.8825 38.494 38.5217 38.5197C38.3345 38.533 38.2416 38.5082 38.1465 38.4829C38.0556 38.4586 37.9628 38.4339 37.7836 38.4415C37.5789 38.4518 37.4768 38.4877 37.3758 38.5231C37.2727 38.5593 37.1706 38.5951 36.9617 38.603C36.7549 38.6108 36.6502 38.5848 36.5455 38.5587C36.4408 38.5327 36.3361 38.5066 36.1293 38.5145C35.9094 38.5201 35.808 38.5272 35.6965 38.535C35.6011 38.5417 35.4983 38.5489 35.3074 38.5561C35.2917 38.5587 35.2786 38.5665 35.2655 38.5744C35.2525 38.5822 35.2394 38.59 35.2237 38.5926C35.0217 38.6239 34.9144 38.6029 34.8076 38.5821C34.7011 38.5613 34.5951 38.5406 34.3965 38.5718C34.1995 38.6027 34.1013 38.626 34.0035 38.6492C33.9037 38.6729 33.8043 38.6965 33.6008 38.728C33.5139 38.7428 33.4462 38.7549 33.3894 38.765L33.3892 38.765C33.1857 38.8013 33.12 38.813 32.8051 38.8374C32.6183 38.8519 32.5192 38.882 32.4265 38.9102C32.3192 38.9429 32.2205 38.9729 32.0041 38.9729C31.7993 38.9729 31.6972 38.9807 31.5954 38.9886C31.4943 38.9964 31.3936 39.0041 31.1927 39.0041C30.9995 39.0066 30.8989 39.0151 30.8022 39.0233H30.8022H30.8021C30.697 39.0321 30.5964 39.0406 30.3865 39.0406C30.3809 39.042 30.376 39.0434 30.3715 39.0447C30.3592 39.0482 30.3495 39.051 30.3341 39.051C30.1326 39.0692 30.0279 39.0302 29.9232 38.9911C29.8185 38.952 29.7138 38.913 29.5122 38.9312C29.3107 38.9494 29.2125 38.982 29.1144 39.0145C29.0162 39.0471 28.918 39.0797 28.7165 39.0979C28.5363 39.1142 28.4366 39.1378 28.3455 39.1593C28.2328 39.186 28.1332 39.2096 27.9103 39.2125C27.6784 39.2155 27.5782 39.1949 27.461 39.1708C27.3719 39.1525 27.273 39.1322 27.0989 39.1187C26.8937 39.103 26.793 39.0781 26.6924 39.0533C26.5927 39.0286 26.4933 39.004 26.2927 38.9885C26.0911 38.9729 25.9916 38.9494 25.8922 38.926C25.7927 38.9025 25.6932 38.8791 25.4917 38.8635C25.4753 38.8635 25.456 38.872 25.4376 38.8802L25.4376 38.8802C25.4208 38.8876 25.4047 38.8947 25.3922 38.8947C25.1881 38.9051 25.086 38.9169 24.9839 38.9286C24.8818 38.9403 24.7797 38.952 24.5756 38.9625C24.3714 38.9729 24.268 38.9625 24.1646 38.952C24.0612 38.9416 23.9578 38.9312 23.7537 38.9416C23.5622 38.9514 23.4605 38.9611 23.3644 38.9704L23.3644 38.9704C23.2556 38.9808 23.1539 38.9906 22.937 38.9989C22.732 39.0067 22.6299 39.063 22.5293 39.1186C22.427 39.1751 22.3263 39.2307 22.1203 39.2333C21.8909 39.2392 21.7888 39.2385 21.6709 39.2376H21.6708H21.6707C21.5788 39.237 21.4773 39.2363 21.2984 39.2385C21.0943 39.2411 20.9909 39.1995 20.8875 39.1578C20.7841 39.1161 20.6807 39.0744 20.4765 39.0771C20.2697 39.0771 20.1663 39.0679 20.0629 39.0588C19.9596 39.0497 19.8562 39.0406 19.6494 39.0406C19.4426 39.0406 19.3392 39.0666 19.2358 39.0927C19.1324 39.1187 19.029 39.1448 18.8222 39.1448C18.6133 39.1448 18.5099 39.1767 18.4054 39.2089C18.3031 39.2405 18.1997 39.2724 17.9951 39.275C17.7859 39.2775 17.6774 39.2209 17.5721 39.162C17.6015 39.1236 17.6282 39.0923 17.6549 39.0611C17.7185 38.9866 17.7816 38.9127 17.8797 38.7439C17.9829 38.5663 18.0444 38.4922 18.1103 38.4129C18.1681 38.3433 18.2293 38.2697 18.3247 38.1188C18.4217 37.9663 18.4465 37.8733 18.4708 37.7824C18.4962 37.687 18.5211 37.5938 18.6283 37.4363C18.721 37.3003 18.7573 37.2112 18.7903 37.1302C18.8318 37.0282 18.8681 36.9391 19.0052 36.7852C19.1388 36.6297 19.2322 36.5893 19.335 36.5448C19.4215 36.5074 19.5147 36.4671 19.6439 36.3528C19.7853 36.2278 19.8415 36.1484 19.8978 36.0689C19.9541 35.9895 20.0104 35.91 20.1517 35.785C20.1732 35.766 20.2154 35.7633 20.2584 35.7604C20.3097 35.7571 20.3621 35.7537 20.3821 35.7225C20.4841 35.561 20.5038 35.4607 20.5234 35.3605C20.543 35.2602 20.5627 35.1599 20.6648 34.9984C20.7714 34.8296 20.8553 34.7718 20.9431 34.7112C21.0233 34.6559 21.107 34.5982 21.2144 34.4514C21.3148 34.3168 21.361 34.2349 21.4033 34.1601C21.4558 34.0671 21.5021 33.9851 21.6385 33.8263C21.7572 33.6881 21.8235 33.6202 21.888 33.5542L21.888 33.5542C21.9571 33.4834 22.0242 33.4147 22.1515 33.2637C22.1594 33.2559 22.1831 33.2572 22.2061 33.2585C22.2289 33.2598 22.251 33.2611 22.2562 33.2533C22.3661 33.097 22.4015 33.0046 22.4368 32.9121C22.4722 32.8196 22.5075 32.7272 22.6174 32.5709C22.725 32.418 22.7524 32.3199 22.7793 32.2237C22.8073 32.1232 22.8348 32.0246 22.9525 31.8677C23.0715 31.7098 23.1691 31.6609 23.2676 31.6115C23.3641 31.5632 23.4615 31.5144 23.5807 31.3624C23.7011 31.2087 23.7351 31.111 23.7691 31.0133C23.8032 30.9157 23.8372 30.818 23.9576 30.6643C23.9696 30.65 23.9859 30.6423 24.0021 30.6346C24.0214 30.6254 24.0405 30.6164 24.0518 30.5966C24.1461 30.4221 24.1775 30.327 24.2089 30.2319C24.2403 30.1369 24.2717 30.0418 24.3659 29.8673C24.459 29.6949 24.524 29.6178 24.5886 29.5419C24.7068 29.6623 24.7621 29.7386 24.8183 29.816C24.8804 29.9017 24.9435 29.9887 25.0937 30.1381C25.1043 30.1487 25.0988 30.1778 25.0935 30.206C25.0884 30.2337 25.0833 30.2606 25.0937 30.2684C25.2612 30.4012 25.3489 30.4637 25.4366 30.5262L25.4366 30.5262L25.4366 30.5262C25.5243 30.5887 25.612 30.6512 25.7795 30.7841C25.947 30.9169 26.0478 30.9612 26.1486 31.0055C26.2493 31.0497 26.3501 31.094 26.5176 31.2269C26.6852 31.3597 26.7755 31.4183 26.8658 31.4769C26.9561 31.5355 27.0464 31.5941 27.2139 31.7269C27.2292 31.7396 27.2371 31.7585 27.2447 31.777C27.2528 31.7964 27.2606 31.8152 27.2767 31.8259C27.4442 31.9197 27.5084 31.9991 27.5725 32.0786C27.6366 32.158 27.7007 32.2375 27.8683 32.3312C28.0332 32.425 28.138 32.4302 28.2434 32.4354C28.3487 32.4406 28.4547 32.4459 28.6221 32.5396C28.787 32.6308 28.8629 32.6907 28.9388 32.7506C29.0147 32.8105 29.0907 32.8704 29.2556 32.9615C29.4221 33.0522 29.5149 33.0823 29.6067 33.1121C29.6995 33.1422 29.7912 33.172 29.9571 33.2637C29.9656 33.2681 29.9739 33.2725 29.9821 33.2769C29.9882 33.2801 29.9941 33.2833 30 33.2865ZM42.2366 37.6222C42.2362 37.5854 42.2381 37.5446 42.2439 37.4986C42.2648 37.332 42.2857 37.2499 42.3067 37.1679L42.3067 37.1679C42.3276 37.0858 42.3486 37.0038 42.3695 36.8371C42.3907 36.6688 42.3651 36.5815 42.3393 36.4934C42.314 36.4069 42.2885 36.3198 42.3067 36.1547C42.3275 35.9476 42.3884 35.8472 42.4489 35.7476C42.5101 35.6467 42.5709 35.5465 42.5894 35.3368C42.6077 35.1254 42.5814 35.0173 42.5552 34.9096C42.5291 34.8024 42.503 34.6956 42.5213 34.4877C42.5396 34.2803 42.5669 34.1774 42.5942 34.0744C42.6218 33.9703 42.6495 33.8662 42.6679 33.6542C42.6881 33.4508 42.69 33.3442 42.6919 33.2411C42.6939 33.1303 42.6959 33.0236 42.7203 32.8051C42.7438 32.5941 42.7726 32.49 42.8014 32.3858C42.8302 32.2816 42.859 32.1774 42.8825 31.9664C42.904 31.7745 42.9276 31.6699 42.9494 31.5731L42.9494 31.5731C42.9756 31.4572 42.9992 31.3525 43.0134 31.1225C43.0294 30.9077 42.9803 30.7996 42.9302 30.6895C42.882 30.5833 42.833 30.4753 42.8407 30.2682C42.8485 30.0572 42.8786 29.9517 42.9087 29.8463C42.9388 29.7408 42.9689 29.6353 42.9768 29.4243C42.9846 29.2133 42.9899 29.1079 42.9951 29.0024C43.0003 28.8969 43.0056 28.7914 43.0134 28.5804C43.0134 28.57 43.0095 28.5583 43.0056 28.5466C43.0016 28.5348 42.9977 28.5231 42.9977 28.5127C43.0265 28.3018 43.0435 28.1963 43.0605 28.0909L43.0605 28.0908L43.0605 28.0908C43.0776 27.9853 43.0946 27.8798 43.1234 27.6688C43.1515 27.4625 43.1834 27.3596 43.2148 27.2584C43.2476 27.1525 43.2798 27.0485 43.3066 26.8301C43.3389 26.5936 43.3465 26.488 43.3552 26.3666C43.3621 26.2714 43.3696 26.1664 43.3903 25.981C43.4077 25.8277 43.4193 25.7301 43.4293 25.6472L43.4293 25.6471L43.4293 25.6469C43.4463 25.5046 43.4581 25.4056 43.4846 25.1423C43.5056 24.9309 43.4766 24.8214 43.4477 24.7125C43.419 24.604 43.3904 24.4959 43.4113 24.288C43.4358 24.0441 43.4513 23.9412 43.4705 23.8142L43.4705 23.8141L43.4706 23.8139C43.4841 23.724 43.4995 23.6219 43.5212 23.4493C43.5414 23.2811 43.5434 23.1928 43.5452 23.1079C43.5472 23.0167 43.5492 22.9294 43.5736 22.7513C43.5971 22.5767 43.6312 22.4934 43.6652 22.4101C43.6713 22.3952 43.6773 22.3803 43.6834 22.3649C43.6718 22.3754 43.6596 22.3862 43.6467 22.3972C43.4878 22.5324 43.3891 22.5801 43.2929 22.6267C43.1926 22.6752 43.0951 22.7225 42.9348 22.866C42.7658 23.0203 42.7009 23.109 42.6315 23.2039C42.5697 23.2883 42.5044 23.3776 42.3589 23.5224C42.2019 23.6761 42.1129 23.7412 42.0239 23.8063C41.9349 23.8714 41.8459 23.9365 41.6888 24.0902C41.5318 24.2438 41.448 24.3142 41.3643 24.3845L41.3642 24.3845C41.2805 24.4548 41.1967 24.5252 41.0397 24.6788C41.0262 24.6922 40.9975 24.6836 40.9686 24.6749C40.9412 24.6666 40.9136 24.6583 40.8983 24.6684C40.7243 24.7925 40.6572 24.8845 40.5903 24.9762C40.5224 25.0694 40.4547 25.1623 40.2754 25.2883C40.0987 25.4142 39.9991 25.4609 39.8982 25.5081C39.7988 25.5547 39.6982 25.6018 39.5215 25.7259C39.3156 25.8727 39.245 25.9512 39.1562 26.0501C39.0937 26.1196 39.0221 26.1993 38.8881 26.3197C38.5891 26.5885 38.5744 26.6052 38.3488 26.8628L38.286 26.9344C38.1444 27.0933 38.061 27.164 37.9786 27.2338C37.8934 27.3059 37.8093 27.3772 37.6631 27.5439C37.5225 27.7016 37.4431 27.7761 37.3651 27.8492L37.3651 27.8492L37.365 27.8493C37.2833 27.9259 37.2031 28.0011 37.0558 28.169C37.0419 28.1828 37.0208 28.1835 37 28.1841C36.9816 28.1847 36.9634 28.1853 36.9511 28.1951C36.8551 28.273 36.7949 28.3393 36.7503 28.4005C36.7528 28.4156 36.755 28.4306 36.7572 28.4455C36.7734 28.5552 36.7897 28.6656 36.8883 28.8514C36.9619 28.9868 37.0077 29.074 37.0461 29.1472C37.1142 29.2771 37.1594 29.3633 37.2966 29.5964C37.4012 29.7831 37.47 29.8647 37.5405 29.9481C37.6076 30.0275 37.6761 30.1086 37.7782 30.284C37.8845 30.462 37.9266 30.5582 37.9681 30.653C38.0104 30.7497 38.052 30.8449 38.1604 31.0237C38.1699 31.0379 38.1869 31.0456 38.2036 31.0532C38.2238 31.0624 38.2437 31.0715 38.2494 31.0914C38.3253 31.2816 38.3855 31.3675 38.4457 31.4535C38.5059 31.5394 38.5661 31.6254 38.642 31.8155C38.7135 31.9945 38.7119 32.1077 38.7103 32.2149C38.7086 32.3354 38.707 32.4483 38.8095 32.6386C38.9545 32.9075 39.0027 32.9752 39.1143 33.1319C39.1518 33.1847 39.1965 33.2475 39.2545 33.3314C39.3718 33.5012 39.4606 33.5629 39.5514 33.6259C39.6387 33.6866 39.7279 33.7486 39.8461 33.9096C39.9759 34.0882 40.0445 34.1668 40.1172 34.2502C40.1824 34.3248 40.2508 34.4032 40.3696 34.5608C40.4952 34.7275 40.5672 34.8043 40.6392 34.8812C40.7112 34.958 40.7831 35.0348 40.9088 35.2015C40.922 35.2173 40.8913 35.2594 40.8603 35.3021C40.8298 35.3441 40.7989 35.3866 40.8093 35.4047C40.9024 35.5822 40.9636 35.6645 41.0244 35.7462C41.0866 35.8299 41.1485 35.913 41.2438 36.0975C41.3621 36.3264 41.4206 36.4013 41.5047 36.5091C41.5546 36.5731 41.6135 36.6486 41.6993 36.7747C41.8031 36.925 41.8421 37.0223 41.878 37.1121C41.9217 37.2215 41.961 37.3196 42.1076 37.4884C42.1559 37.5439 42.1981 37.587 42.2366 37.6222ZM16.283 38.7126C16.23 38.8015 16.1952 38.8971 16.179 38.9932C16.1133 38.8507 16.1569 38.7508 16.2157 38.6157C16.2573 38.5201 16.3066 38.407 16.3304 38.2488C16.3633 38.0297 16.4011 37.9189 16.4378 37.8112C16.4771 37.6961 16.5152 37.5844 16.545 37.3476C16.5772 37.0942 16.5837 36.9948 16.5924 36.8598C16.5979 36.7756 16.6042 36.6774 16.6183 36.5193C16.6363 36.3168 16.6252 36.2114 16.6142 36.1076C16.6029 36.0004 16.5918 35.8949 16.613 35.6858C16.6256 35.5629 16.6329 35.4757 16.6391 35.4031C16.6535 35.2327 16.6611 35.1425 16.7125 34.8576C16.7423 34.6924 16.7513 34.59 16.7593 34.4998C16.7709 34.3681 16.7803 34.2621 16.8486 34.0241C16.9092 33.8407 16.9598 33.7479 17.0069 33.6612C17.0616 33.5607 17.1118 33.4684 17.168 33.2531C17.2215 33.0453 17.2518 32.9452 17.2826 32.8432L17.2826 32.8432C17.312 32.7459 17.3419 32.6469 17.3931 32.4509C17.3957 32.4405 17.4166 32.434 17.4376 32.4274C17.4585 32.4209 17.4794 32.4144 17.4821 32.404C17.5146 32.2048 17.5256 32.0996 17.5362 31.998C17.5478 31.887 17.559 31.7803 17.5972 31.5601C17.6339 31.3491 17.6169 31.2384 17.5999 31.1277C17.5828 31.017 17.5658 30.9063 17.6025 30.6954C17.6402 30.4809 17.646 30.3755 17.6521 30.2661C17.6578 30.1629 17.6637 30.0563 17.6967 29.8515C17.7305 29.6469 17.7967 29.5518 17.8624 29.4573C17.9289 29.3616 17.9949 29.2666 18.0265 29.0597C18.0579 28.8539 18.0448 28.7471 18.0317 28.6403C18.0187 28.5335 18.0056 28.4267 18.037 28.221C18.0818 27.9005 18.0981 27.8328 18.1476 27.6266L18.1476 27.6266L18.1476 27.6266C18.1617 27.568 18.1784 27.4982 18.1993 27.4083C18.2935 27.002 18.2935 27.002 18.4191 26.6061L18.4191 26.6061C18.4802 26.4054 18.5318 26.3118 18.5842 26.2168C18.6352 26.1243 18.687 26.0304 18.7489 25.8351C18.8085 25.6392 18.8066 25.53 18.8046 25.4217C18.8026 25.3112 18.8007 25.2016 18.8641 25.0017C18.8687 24.9857 18.8753 24.9727 18.8817 24.9601C18.8899 24.944 18.8978 24.9284 18.9008 24.9079C18.9243 24.7464 18.923 24.6644 18.9217 24.5823V24.5823C18.9204 24.5003 18.9191 24.4182 18.9426 24.2567C18.9662 24.0952 19.0264 24.0223 19.0866 23.9494C19.114 23.9162 19.1414 23.883 19.1654 23.8415C19.1931 23.8685 19.2233 23.899 19.2566 23.9339C19.4046 24.089 19.438 24.2068 19.4711 24.3238C19.5047 24.4426 19.5381 24.5604 19.6911 24.7153C19.8389 24.8649 19.9547 24.8982 20.0715 24.9316C20.1864 24.9646 20.3022 24.9978 20.4502 25.1425C20.5994 25.2883 20.6583 25.3782 20.7172 25.468C20.7761 25.5579 20.835 25.6478 20.9842 25.7936C21.124 25.9327 21.2078 25.996 21.2885 26.0569C21.377 26.1237 21.4617 26.1877 21.6124 26.3458C21.7663 26.5071 21.8186 26.6059 21.8726 26.7082C21.9233 26.8042 21.9756 26.9031 22.1149 27.0595C22.2589 27.2209 22.3139 27.3173 22.3688 27.4137C22.4238 27.5101 22.4788 27.6064 22.6227 27.7679C22.7071 27.8625 22.7663 27.9299 22.8153 27.9856L22.8153 27.9856L22.8153 27.9857C22.9337 28.1203 22.9929 28.1877 23.2038 28.4087C23.3284 28.5414 23.4198 28.5981 23.5071 28.6424C23.4461 28.7445 23.3973 28.8027 23.3484 28.861C23.2862 28.9351 23.2238 29.0095 23.1357 29.1745C23.0514 29.3324 23.0399 29.4353 23.0289 29.5337C23.0167 29.6431 23.0051 29.7469 22.8949 29.9142C22.8111 30.0403 22.764 30.1203 22.7234 30.1894C22.66 30.2971 22.6124 30.378 22.4656 30.5653C22.3457 30.7183 22.2376 30.759 22.1307 30.7992C22.0229 30.8398 21.9164 30.8798 21.8008 31.0342C21.6825 31.192 21.6484 31.2867 21.6134 31.3837C21.5804 31.4757 21.5465 31.5698 21.4395 31.7218C21.3183 31.8942 21.2527 31.9636 21.1788 32.0418C21.1187 32.1055 21.0531 32.175 20.9474 32.3104C20.8475 32.4386 20.7946 32.5153 20.7477 32.5833C20.6841 32.6756 20.6314 32.752 20.4868 32.9199C20.3611 33.0658 20.2957 33.1361 20.2302 33.2064C20.1648 33.2768 20.0994 33.3471 19.9737 33.4929C19.9629 33.5064 19.9914 33.5479 20.0192 33.5883C20.045 33.626 20.0703 33.6627 20.0627 33.6753C19.9659 33.8249 19.9013 33.8931 19.8381 33.9597C19.7716 34.0299 19.7067 34.0983 19.6073 34.2587C19.4958 34.4386 19.4259 34.496 19.3408 34.5659C19.278 34.6174 19.2069 34.6758 19.1047 34.7953C18.9991 34.9209 18.9559 35.0054 18.9169 35.0819C18.8669 35.1798 18.8237 35.2643 18.665 35.4047C18.5236 35.5298 18.449 35.5871 18.3744 35.6444C18.2998 35.7017 18.2252 35.759 18.0839 35.884C18.0642 35.9011 18.0193 35.901 17.9739 35.9009C17.9224 35.9008 17.8702 35.9008 17.8535 35.9257C17.741 36.0924 17.7227 36.2018 17.7043 36.3111C17.686 36.4205 17.6677 36.5299 17.5551 36.6966C17.4457 36.8587 17.3684 36.9297 17.2933 36.9987C17.2138 37.0717 17.1367 37.1425 17.0264 37.3165C16.9085 37.4997 16.868 37.5885 16.8225 37.6883C16.7851 37.7703 16.7444 37.8596 16.6547 38.0146C16.5571 38.1833 16.5137 38.273 16.4713 38.3605C16.4273 38.4515 16.3843 38.5402 16.283 38.7126ZM18.5222 21.6024C18.4936 21.6051 18.4628 21.6078 18.4295 21.6106C18.1625 21.6314 17.9112 21.7669 17.817 22.0169C17.7232 22.2658 17.7124 22.6232 17.8982 22.8217C17.8915 22.8911 17.8817 22.9748 17.8642 23.0951C17.8354 23.2909 17.8289 23.3899 17.8223 23.4898V23.4898C17.8158 23.5892 17.8092 23.6895 17.7805 23.8869C17.7545 24.0506 17.7455 24.1493 17.7376 24.236C17.7265 24.359 17.7175 24.4578 17.6653 24.6839C17.6164 24.8948 17.535 24.9808 17.4505 25.0701C17.3722 25.1529 17.2912 25.2384 17.2308 25.4288C17.168 25.6268 17.1601 25.7336 17.1523 25.8403C17.1444 25.9471 17.1366 26.0539 17.0737 26.2519C17.0109 26.4498 16.99 26.5527 16.969 26.6556C16.9481 26.7585 16.9271 26.8614 16.8643 27.0593C16.8594 27.0765 16.8474 27.0903 16.8356 27.1038C16.8225 27.119 16.8095 27.1338 16.8067 27.1531C16.7753 27.3614 16.7426 27.463 16.7099 27.5646C16.6772 27.6662 16.6445 27.7678 16.613 27.9761C16.5816 28.1845 16.5502 28.2861 16.5188 28.3877C16.4874 28.4893 16.456 28.5908 16.4246 28.7992C16.3943 29.0002 16.3871 29.1055 16.3802 29.2074C16.3728 29.3167 16.3656 29.4222 16.3304 29.6379C16.298 29.8336 16.2869 29.9374 16.2764 30.0367C16.2647 30.1463 16.2536 30.2503 16.2152 30.4662C16.1802 30.6804 16.148 30.7818 16.115 30.8856C16.0838 30.9837 16.0519 31.0841 16.0162 31.284C15.987 31.4607 15.9771 31.5625 15.9683 31.6532C15.9565 31.7739 15.9466 31.8752 15.8958 32.1071C15.8522 32.3089 15.8778 32.423 15.9029 32.5348C15.9289 32.651 15.9544 32.7647 15.9011 32.9718C15.8487 33.175 15.8199 33.2766 15.7911 33.3781C15.7623 33.4797 15.7336 33.5813 15.6812 33.7845C15.6289 33.9876 15.5608 34.0788 15.4927 34.1699C15.4247 34.2611 15.3566 34.3523 15.3043 34.5554C15.2995 34.5721 15.2881 34.5899 15.2767 34.6077C15.2632 34.6289 15.2495 34.6502 15.2467 34.67C15.2286 34.8758 15.245 34.9825 15.2611 35.0879C15.2777 35.1961 15.2941 35.3029 15.2729 35.5139C15.2547 35.7202 15.2776 35.8269 15.3003 35.9326C15.3235 36.0405 15.3464 36.1473 15.3252 36.3578C15.3066 36.5693 15.2354 36.6668 15.163 36.766C15.0927 36.8622 15.0212 36.96 14.9954 37.1653C14.9778 37.323 14.9844 37.4061 14.9907 37.4864C14.9976 37.5731 15.0042 37.6564 14.9797 37.8268C14.9532 37.9932 14.9643 38.0779 14.9756 38.1638C14.9866 38.2473 14.9977 38.3318 14.9745 38.4936C14.9509 38.6577 14.9195 38.7358 14.8881 38.814C14.8567 38.8921 14.8253 38.9703 14.8017 39.1344C14.7782 39.2958 14.7677 39.3779 14.7572 39.4599L14.7572 39.4599L14.7572 39.4599C14.7467 39.542 14.7363 39.624 14.7127 39.7855C14.6813 39.9887 14.8122 40.1502 14.9483 40.3064C15.0844 40.4575 15.2258 40.5409 15.4299 40.5409C15.4299 40.5409 15.4352 40.6815 15.4195 40.6659C15.6308 40.6633 15.7368 40.6426 15.8431 40.6218C15.9501 40.6009 16.0574 40.5799 16.2728 40.5773C16.4874 40.5747 16.5947 40.576 16.702 40.5773C16.8094 40.5786 16.9167 40.5799 17.1313 40.5773C17.3424 40.5747 17.4484 40.5708 17.5545 40.567L17.5546 40.5669C17.6618 40.563 17.7691 40.5591 17.9846 40.5565C18.1947 40.5565 18.2994 40.5709 18.4038 40.5853C18.5075 40.5995 18.6109 40.6138 18.817 40.6138C19.0271 40.6138 19.1318 40.6243 19.2361 40.6347C19.3399 40.6451 19.4432 40.6555 19.6494 40.6555C19.8601 40.6555 19.9648 40.6555 20.0695 40.6548C20.1728 40.6541 20.2761 40.6528 20.4813 40.6503L20.4818 40.6502C20.6912 40.6476 20.7945 40.6047 20.8979 40.5617C21.0013 40.5187 21.1047 40.4757 21.3141 40.4731C21.5235 40.4705 21.6269 40.451 21.7303 40.4315L21.7303 40.4315L21.7303 40.4315C21.8337 40.4119 21.9371 40.3924 22.1465 40.3898C22.351 40.3872 22.4569 40.4445 22.5618 40.5012C22.669 40.5591 22.775 40.6165 22.9841 40.6086C23.186 40.6007 23.2842 40.538 23.3832 40.4747C23.4818 40.4117 23.5813 40.3481 23.7851 40.3377C23.9892 40.3273 24.0913 40.3442 24.1934 40.3611C24.2955 40.3781 24.3976 40.395 24.6017 40.3846C24.816 40.3763 24.9178 40.3959 25.0268 40.4169C25.1228 40.4355 25.2243 40.4551 25.4132 40.4575C25.609 40.46 25.7121 40.4242 25.8115 40.3896C25.9193 40.3521 26.0226 40.3162 26.2351 40.3325C26.4415 40.3456 26.5409 40.3814 26.6415 40.4177C26.7398 40.4531 26.8394 40.4889 27.0413 40.5044C27.2617 40.5184 27.3617 40.5295 27.4712 40.5416L27.4712 40.5416C27.5646 40.5519 27.6649 40.5629 27.8527 40.5773C27.8728 40.5798 27.8941 40.5991 27.9149 40.6179C27.9374 40.6383 27.9593 40.6582 27.9783 40.6555C28.1825 40.6372 28.2833 40.6216 28.3841 40.606C28.4848 40.5903 28.5856 40.5747 28.7898 40.5565C28.9939 40.5382 29.0921 40.494 29.1903 40.4497C29.2884 40.4054 29.3866 40.3611 29.5907 40.3429C29.7837 40.3279 29.8842 40.3046 29.9815 40.2821C30.0874 40.2576 30.1893 40.234 30.4022 40.2231C30.6111 40.2124 30.7145 40.2659 30.8204 40.3206C30.9214 40.3729 31.0247 40.4263 31.2241 40.4263C31.4282 40.4263 31.5303 40.3976 31.6324 40.3689C31.7345 40.3403 31.8366 40.3116 32.0408 40.3116C32.2449 40.3116 32.347 40.3221 32.4491 40.3325H32.4491C32.5512 40.3429 32.6533 40.3533 32.8574 40.3533C32.8739 40.3533 32.8918 40.3447 32.9104 40.3358C32.9273 40.3277 32.9447 40.3193 32.9621 40.3169C33.1579 40.2861 33.2612 40.2919 33.3636 40.2977C33.4693 40.3037 33.5741 40.3096 33.7788 40.2752C33.9785 40.2416 34.0742 40.1914 34.1689 40.1417C34.2653 40.0911 34.3607 40.041 34.564 40.0095C34.6523 39.9947 34.7214 39.9826 34.7799 39.9724C34.9885 39.936 35.0606 39.9234 35.3755 39.8949C35.5393 39.8803 35.6383 39.8673 35.7244 39.856L35.7245 39.856C35.8529 39.8392 35.9529 39.8261 36.1974 39.8168C36.4034 39.8116 36.5081 39.8568 36.6117 39.9015C36.7162 39.9467 36.8196 39.9913 37.0245 39.9835C37.2351 39.9754 37.337 39.9604 37.4424 39.9449C37.5414 39.9304 37.6434 39.9154 37.8412 39.9053C38.0205 39.8975 38.1068 39.8499 38.1938 39.802C38.2796 39.7549 38.366 39.7073 38.5427 39.697C38.7169 39.6868 38.8072 39.6965 38.8956 39.7061C38.9878 39.7161 39.0782 39.7259 39.2599 39.7126C39.4433 39.7018 39.5308 39.6856 39.6213 39.6688C39.7064 39.6529 39.7941 39.6367 39.9666 39.624C40.1227 39.6149 40.2104 39.6118 40.2896 39.6089C40.391 39.6053 40.4787 39.6022 40.6786 39.5876C40.8555 39.5772 40.9483 39.6247 41.0407 39.672C41.1342 39.7198 41.2271 39.7674 41.4063 39.7543C41.5843 39.7412 41.6719 39.7269 41.7596 39.7126C41.8473 39.6983 41.935 39.6839 42.113 39.6709C42.291 39.6579 42.3774 39.624 42.4637 39.5902C42.5501 39.5563 42.6365 39.5224 42.8145 39.5094C43.1495 39.4886 43.3066 39.2385 43.3485 38.9051C43.3773 38.689 43.4178 38.5835 43.4584 38.478C43.499 38.3725 43.5395 38.267 43.5683 38.0508C43.5971 37.8346 43.5919 37.724 43.5867 37.6133V37.6132C43.5814 37.5025 43.5762 37.3918 43.605 37.1757C43.6218 37.0494 43.6342 36.9599 43.6444 36.8859L43.6445 36.8853L43.6445 36.8853L43.6445 36.8851C43.6692 36.7062 43.6816 36.6166 43.7149 36.3109C43.7334 36.1246 43.7458 36.0216 43.757 35.9283L43.757 35.9281L43.757 35.9281C43.7712 35.8102 43.7835 35.7077 43.8039 35.4723C43.8222 35.2613 43.8654 35.1584 43.9086 35.0555C43.9518 34.9526 43.995 34.8497 44.0133 34.6388C44.0307 34.4383 44.034 34.3331 44.037 34.2326V34.2326C44.0405 34.1216 44.0437 34.0164 44.0657 33.7949C44.0864 33.5838 44.0725 33.4745 44.059 33.367C44.045 33.2569 44.0314 33.1488 44.0552 32.9353C44.0788 32.7244 44.101 32.6189 44.1233 32.5134C44.1455 32.4079 44.1678 32.3024 44.1913 32.0914C44.2149 31.8805 44.2162 31.7737 44.2175 31.6669V31.6669C44.2188 31.5601 44.2201 31.4533 44.2437 31.2423C44.2437 31.2345 44.2685 31.2267 44.2934 31.2189C44.3183 31.2111 44.3431 31.2033 44.3431 31.1955C44.351 30.9845 44.313 30.8777 44.2751 30.7709C44.2371 30.6641 44.1992 30.5573 44.207 30.3463C44.2149 30.1354 44.2319 30.0299 44.2489 29.9244C44.2659 29.8189 44.2829 29.7134 44.2908 29.5024C44.2997 29.2625 44.3154 29.1607 44.334 29.04C44.3482 28.9483 44.364 28.8458 44.3798 28.6638C44.3951 28.4869 44.3985 28.3832 44.4016 28.2914V28.2914V28.2914C44.4057 28.1642 44.4092 28.0597 44.4426 27.8147C44.4714 27.6037 44.5303 27.5047 44.5892 27.4057C44.6481 27.3067 44.707 27.2078 44.7358 26.9968C44.765 26.7822 44.7388 26.6714 44.7122 26.5587C44.6864 26.4499 44.6603 26.3394 44.6834 26.1321C44.7062 25.9306 44.729 25.8277 44.7512 25.7275C44.7749 25.6205 44.7979 25.5165 44.8195 25.2986C44.8373 25.0961 44.8354 24.9908 44.8334 24.8876V24.8876C44.8314 24.7784 44.8294 24.6716 44.8509 24.4547C44.8712 24.2503 44.8718 24.1437 44.8725 24.0408V24.0408C44.8731 23.9312 44.8737 23.8257 44.898 23.6108C44.9243 23.3992 44.9808 23.3002 45.0379 23.2003C45.0947 23.101 45.152 23.0007 45.1807 22.7877C45.2096 22.5737 45.1727 22.4604 45.136 22.3475C45.0994 22.2351 45.063 22.1231 45.0917 21.9126C45.1205 21.7016 45.1572 21.5987 45.1938 21.4958C45.2305 21.3929 45.2671 21.2901 45.2959 21.0791C45.3001 21.0498 45.3136 21.0189 45.3272 20.9877C45.3475 20.941 45.3681 20.8936 45.3587 20.8499C45.3428 20.7548 45.3134 20.712 45.2836 20.6684C45.2545 20.626 45.225 20.5829 45.2069 20.4904C45.1441 20.131 44.8457 19.8705 44.4792 19.9018C44.2646 19.92 44.1547 19.907 44.0447 19.894C43.9348 19.881 43.8249 19.8679 43.6102 19.8862C43.4895 19.8979 43.4031 19.9096 43.3318 19.9212C43.2682 19.9162 43.217 19.9105 43.1657 19.9047L43.1657 19.9047C43.0612 19.8929 42.9565 19.8811 42.7463 19.8759C42.5467 19.8709 42.4422 19.8494 42.3422 19.8288C42.2324 19.8061 42.1279 19.7846 41.9087 19.7873C41.6884 19.79 41.5798 19.8395 41.4697 19.8897C41.3625 19.9385 41.2539 19.988 41.0397 19.9957C40.8224 20.0035 40.7125 19.9762 40.6025 19.9488C40.4926 19.9215 40.3827 19.8941 40.1654 19.9019C39.9482 19.9098 39.8408 19.9553 39.7335 20.0009C39.6262 20.0465 39.5189 20.0921 39.3016 20.0999C39.291 20.1025 39.2776 20.0567 39.2643 20.0109C39.2514 19.9668 39.2386 19.9228 39.2283 19.9228C39.0178 19.9487 38.913 19.972 38.8084 19.9952C38.7023 20.0188 38.5964 20.0424 38.3803 20.0686C38.1656 20.0947 38.0596 20.1142 37.9536 20.1338C37.8476 20.1533 37.7416 20.1728 37.5269 20.1989C37.3032 20.2264 37.196 20.2263 37.0817 20.2262C36.9793 20.2261 36.8712 20.2261 36.6684 20.2458C36.4408 20.2681 36.3354 20.2635 36.2201 20.2584C36.1518 20.2554 36.0801 20.2522 35.9774 20.2545C35.9343 20.2516 35.8861 20.2502 35.8309 20.2508C35.6953 20.2524 35.602 20.2724 35.525 20.2993C35.4739 20.3107 35.4305 20.3234 35.3868 20.3362C35.2835 20.3664 35.1788 20.397 34.967 20.4125C34.8132 20.4237 34.7152 20.4375 34.6329 20.451C34.5969 20.4484 34.5641 20.4454 34.5314 20.4425C34.4188 20.4324 34.3089 20.4226 34.0824 20.4279C33.8697 20.433 33.7611 20.4207 33.6547 20.4085C33.5438 20.3959 33.4352 20.3835 33.2134 20.3915C32.9961 20.3993 32.8888 20.4136 32.7815 20.4279C32.6742 20.4423 32.5669 20.4566 32.3496 20.4644C32.1922 20.4701 32.0918 20.4641 32.0071 20.4547C31.9911 20.4494 31.9754 20.444 31.9597 20.4386L31.9596 20.4385L31.9595 20.4385C31.8535 20.402 31.7474 20.3656 31.5328 20.3552C31.5171 20.3552 31.5027 20.3721 31.4883 20.389L31.4883 20.389C31.4784 20.4007 31.4685 20.4123 31.4582 20.4184C31.4237 20.4201 31.393 20.4233 31.3652 20.4274C31.1966 20.4325 31.0993 20.4023 31.0015 20.3719C30.8911 20.3377 30.7799 20.3032 30.5643 20.3187C30.422 20.3289 30.328 20.3509 30.2507 20.3769C30.2195 20.3723 30.1849 20.37 30.1457 20.3706C29.9808 20.3732 29.8983 20.4123 29.8159 20.4514C29.7334 20.4904 29.6509 20.5295 29.486 20.5321C29.3305 20.5345 29.2472 20.5246 29.1696 20.5154C29.0799 20.5047 28.9979 20.4949 28.8212 20.5061C28.6338 20.5185 28.5347 20.512 28.4396 20.5057C28.3354 20.4988 28.236 20.4922 28.0307 20.5113C27.8264 20.5275 27.7299 20.5438 27.6289 20.5608C27.5894 20.5674 27.5492 20.5742 27.5016 20.5811C27.4034 20.5734 27.2953 20.5677 27.104 20.5792C26.8914 20.5946 26.7867 20.651 26.6824 20.7071L26.6627 20.7176C26.6112 20.7258 26.5508 20.7335 26.4759 20.7405C26.2757 20.7566 26.1803 20.7728 26.0808 20.7897C26.039 20.7967 25.9965 20.8039 25.9453 20.8113C25.8682 20.806 25.8067 20.7909 25.7454 20.7758C25.6307 20.7476 25.5167 20.7195 25.3031 20.7563C25.0911 20.7927 24.9903 20.8409 24.8895 20.8891C24.8128 20.9258 24.7361 20.9625 24.6102 20.994L24.5363 21.001C24.4395 21.0101 24.3426 21.0192 24.1463 21.0374C23.9526 21.0556 23.8518 21.0322 23.751 21.0088C23.6503 20.9853 23.5495 20.9619 23.3558 20.9801C23.1577 20.9959 23.0635 21.0382 22.9684 21.0809C22.8751 21.1228 22.7808 21.1652 22.5862 21.1833C22.3895 21.2015 22.2887 21.1806 22.1883 21.1597C22.0885 21.1389 21.989 21.1182 21.7957 21.1364C21.586 21.1533 21.4898 21.1657 21.3843 21.1792C21.2948 21.1907 21.1986 21.203 21.021 21.2197C21.007 21.2197 20.9959 21.2287 20.9847 21.2378C20.975 21.2457 20.9651 21.2538 20.9529 21.2562C20.7461 21.2979 20.6362 21.2823 20.5262 21.2666C20.4163 21.251 20.3064 21.2354 20.0996 21.277C19.898 21.3182 19.7973 21.3454 19.6971 21.3724L19.6971 21.3724C19.5944 21.4001 19.4924 21.4276 19.2829 21.4698C19.0761 21.5115 18.9727 21.5271 18.8694 21.5427C18.7777 21.5566 18.686 21.5704 18.5222 21.6024ZM20.1354 22.7057C20.1203 22.7354 20.1132 22.7816 20.1152 22.8504C20.125 23.1995 20.2375 23.2584 20.4167 23.3523C20.5236 23.4083 20.6542 23.4767 20.8009 23.6266C20.9384 23.7682 21.0068 23.848 21.0715 23.9235C21.1447 24.0089 21.2131 24.0888 21.3716 24.2465C21.6699 24.5434 21.67 24.5434 21.9735 24.8402L21.9736 24.8403C22.1311 24.997 22.1923 25.0841 22.2574 25.1765L22.2574 25.1765C22.3156 25.2593 22.3768 25.3463 22.5128 25.4915C22.6505 25.6357 22.7325 25.7068 22.8091 25.7732L22.8092 25.7732C22.8986 25.8506 22.9808 25.9218 23.1358 26.0957C23.2797 26.2572 23.3413 26.3484 23.4028 26.4396C23.4643 26.5307 23.5258 26.6219 23.6698 26.7834C23.8157 26.9471 23.9213 26.997 24.0289 27.0479C24.1335 27.0973 24.2398 27.1476 24.387 27.3043C24.5238 27.448 24.5784 27.5368 24.6316 27.6232C24.6884 27.7154 24.7435 27.8049 24.8948 27.9555C25.0413 28.1013 25.1251 28.1625 25.2089 28.2237L25.2089 28.2237C25.2926 28.2849 25.3764 28.3462 25.523 28.492C25.6601 28.6285 25.7193 28.7136 25.7752 28.7939C25.8387 28.8852 25.8978 28.9702 26.0622 29.1171C26.1608 29.2036 26.2275 29.2636 26.2828 29.3134L26.283 29.3136L26.2831 29.3136L26.2831 29.3137C26.4009 29.4197 26.468 29.4801 26.6852 29.6537C26.8613 29.7922 26.9265 29.8709 26.9986 29.9581C27.0593 30.0315 27.125 30.1109 27.2662 30.2371C27.4529 30.3816 27.5473 30.4326 27.6558 30.4912C27.739 30.5362 27.8305 30.5856 27.9782 30.6851C28.3118 30.9096 28.3374 30.9238 28.6494 31.0961L28.7163 31.1331C28.9048 31.2373 29.0082 31.2737 29.1116 31.3102C29.215 31.3467 29.3184 31.3831 29.5068 31.4873C29.6594 31.5717 29.7408 31.6646 29.8121 31.7459C29.9169 31.8656 30 31.9604 30.2555 31.9666C30.4707 31.9724 30.5282 31.8577 30.5962 31.722C30.649 31.6166 30.7082 31.4986 30.8523 31.4144C31.0172 31.318 31.1192 31.3024 31.2213 31.2868C31.3234 31.2711 31.4255 31.2555 31.5904 31.1591C31.734 31.0752 31.827 31.0427 31.9108 31.0133C32.0196 30.9752 32.1129 30.9425 32.2814 30.8101C32.4724 30.6587 32.5358 30.5699 32.6103 30.4655C32.6665 30.3868 32.729 30.2993 32.8573 30.1694C33.0058 30.019 33.061 29.9241 33.1163 29.8288C33.1722 29.7327 33.2283 29.6361 33.3808 29.4818C33.5243 29.3365 33.5951 29.2563 33.6638 29.1785L33.6638 29.1785L33.6638 29.1785C33.7379 29.0945 33.8095 29.0135 33.9671 28.8567C33.9748 28.849 34.0002 28.8564 34.0265 28.864C34.0538 28.872 34.0821 28.8802 34.0928 28.8723C34.2648 28.7305 34.3595 28.6753 34.4571 28.6184C34.5495 28.5645 34.6444 28.5092 34.81 28.3774C34.9775 28.2394 35.0573 28.1651 35.1371 28.0909L35.1371 28.0909L35.1372 28.0909C35.217 28.0167 35.2968 27.9424 35.4643 27.8044C35.6434 27.6568 35.7059 27.5658 35.7731 27.4677C35.8317 27.3822 35.894 27.2914 36.0402 27.1532C36.2268 26.9737 36.2896 26.8935 36.3713 26.7892L36.3713 26.7891L36.3714 26.7891C36.4272 26.7178 36.4919 26.6352 36.6108 26.5021C36.7561 26.3394 36.8461 26.2727 36.935 26.2069C37.0255 26.1399 37.1148 26.0737 37.26 25.9082C37.4054 25.7454 37.4967 25.68 37.587 25.6154C37.6787 25.5498 37.7693 25.4849 37.9143 25.3196C37.9313 25.3027 37.9392 25.2793 37.9471 25.2563C37.9562 25.2295 37.9651 25.2034 37.9876 25.1893C38.1656 25.0617 38.2677 25.0161 38.3698 24.9705C38.4719 24.925 38.574 24.8794 38.752 24.7518C38.9299 24.6241 38.9849 24.5147 39.0399 24.4053C39.0948 24.296 39.1498 24.1866 39.3278 24.0589C39.5001 23.9354 39.6258 23.9192 39.7476 23.9036C39.8775 23.8869 40.003 23.8707 40.1759 23.7255C40.3564 23.574 40.4214 23.4829 40.4921 23.3839C40.5526 23.2991 40.6173 23.2085 40.7622 23.0692C40.9199 22.9149 40.9707 22.8105 41.0213 22.7065C41.0715 22.6034 41.1215 22.5007 41.2752 22.3503C41.4419 22.1872 41.5349 22.1268 41.6339 22.0624C41.7215 22.0055 41.8139 21.9455 41.9663 21.8085C42.075 21.7087 42.2013 21.6711 42.3111 21.6385C42.4095 21.6092 42.4947 21.5839 42.5421 21.521C42.5181 21.5197 42.4949 21.5182 42.4718 21.5166C42.3548 21.5088 42.2384 21.5011 42.0083 21.5219C41.9978 21.5219 41.9874 21.4997 41.9769 21.4776C41.9664 21.4555 41.9559 21.4333 41.9455 21.4333C41.7308 21.4307 41.6235 21.4802 41.5162 21.5297C41.4089 21.5792 41.3016 21.6287 41.0869 21.6261C40.874 21.6235 40.7667 21.5811 40.6602 21.5391C40.552 21.4965 40.4447 21.4542 40.2284 21.4542C39.9623 21.4509 39.8591 21.4577 39.7169 21.467C39.6297 21.4728 39.5278 21.4795 39.3646 21.4854C39.1338 21.4938 39.0286 21.5173 38.914 21.5428C38.8154 21.5648 38.7098 21.5884 38.5113 21.6052C38.2966 21.6235 38.188 21.6182 38.0794 21.613C38.0296 21.6107 37.9798 21.6083 37.9199 21.6081C37.8538 21.6332 37.7733 21.6545 37.6631 21.6679C37.5091 21.6866 37.4097 21.6932 37.3258 21.6959C37.2919 21.7103 37.2609 21.7255 37.2302 21.7406C37.1232 21.7932 37.0187 21.8446 36.7994 21.8553C36.6607 21.8618 36.5785 21.8316 36.5053 21.7943L36.4773 21.8067C36.3966 21.8429 36.3168 21.8787 36.1501 21.8919C35.9852 21.9049 35.9002 21.8645 35.8151 21.8242C35.73 21.7838 35.6449 21.7434 35.48 21.7564C35.3151 21.7695 35.2314 21.7643 35.1476 21.759C35.0639 21.7538 34.9801 21.7486 34.8152 21.7617C34.6513 21.7746 34.5727 21.83 34.4947 21.885C34.4157 21.9407 34.3372 21.996 34.1713 22.0065C34.1588 22.0065 34.1439 21.9922 34.1284 21.9774C34.1113 21.9611 34.0935 21.944 34.077 21.944C33.8624 21.9336 33.7551 21.927 33.6478 21.9205C33.5405 21.914 33.4331 21.9075 33.2185 21.8971C33.0039 21.8867 32.8965 21.8697 32.7892 21.8528C32.6819 21.8359 32.5746 21.819 32.3599 21.8085C32.1326 21.7975 32.0256 21.823 31.9116 21.8502C31.8102 21.8744 31.7033 21.8998 31.5014 21.9023C31.2982 21.9048 31.1912 21.8734 31.0893 21.8435C31.0509 21.8323 31.0132 21.8212 30.9713 21.8122C30.8925 21.8076 30.7979 21.805 30.6587 21.8084C30.4388 21.8136 30.3302 21.8409 30.2216 21.8683C30.1162 21.8948 30.0108 21.9213 29.8039 21.9277L29.7948 21.9283C29.7199 21.9338 29.6579 21.9347 29.6043 21.9325C29.3425 21.939 29.283 21.9418 28.9402 21.958L28.9102 21.9595C28.7633 21.9674 28.6713 21.9543 28.5926 21.937C28.5637 21.9471 28.5368 21.9577 28.5099 21.9682C28.4042 22.0096 28.2995 22.0506 28.0829 22.0638C27.8683 22.0768 27.7596 22.0755 27.651 22.0742C27.5424 22.0729 27.4338 22.0716 27.2191 22.0846C26.8592 22.1065 26.801 22.1137 26.5386 22.1461L26.3606 22.168C26.1337 22.1928 26.0326 22.2364 25.9251 22.2829C25.8291 22.3244 25.7281 22.368 25.5282 22.4024C25.3162 22.4389 25.2076 22.4454 25.0989 22.4519C24.9903 22.4584 24.8817 22.4649 24.6697 22.5014C24.4528 22.5387 24.3442 22.5419 24.233 22.5452C24.1268 22.5484 24.0183 22.5516 23.8111 22.5847C23.8017 22.587 23.7913 22.5946 23.7808 22.6022C23.7678 22.6116 23.7546 22.6212 23.743 22.6212C23.5546 22.6342 23.4617 22.6524 23.3687 22.6707C23.2758 22.6889 23.1829 22.7071 22.9944 22.7202C22.806 22.7332 22.7091 22.6941 22.6123 22.655C22.5154 22.616 22.4186 22.5769 22.2301 22.5899C22.0417 22.6029 21.9514 22.6524 21.861 22.7019C21.7707 22.7514 21.6804 22.8009 21.492 22.8139C21.303 22.827 21.2061 22.8034 21.1097 22.7799C21.0138 22.7565 20.9182 22.7332 20.7329 22.7462C20.5966 22.7558 20.4757 22.7219 20.3779 22.6936C20.3043 22.7027 20.2504 22.7036 20.1964 22.7044C20.1764 22.7047 20.1564 22.705 20.1354 22.7057Z" fill="#023866"/>
</svg>
